<?xml version="1.0" encoding="UTF-8"?>
<!DOCTYPE svg PUBLIC "-//W3C//DTD SVG 1.1//EN" "http://www.w3.org/Graphics/SVG/1.1/DTD/svg11.dtd">
<svg xmlns="http://www.w3.org/2000/svg" version="1.1" width="164px" height="164px" style="shape-rendering:geometricPrecision; text-rendering:geometricPrecision; image-rendering:optimizeQuality; fill-rule:evenodd; clip-rule:evenodd" xmlns:xlink="http://www.w3.org/1999/xlink">
<g><path style="opacity:1" fill="#b3cad4" d="M 152.5,-0.5 C 153.5,-0.5 154.5,-0.5 155.5,-0.5C 157.076,0.142944 158.41,1.14294 159.5,2.5C 158.596,3.20895 158.263,4.20895 158.5,5.5C 156.858,3.91917 154.858,3.2525 152.5,3.5C 151.791,2.59603 150.791,2.26269 149.5,2.5C 150.306,1.27187 151.306,0.271873 152.5,-0.5 Z"/></g>
<g><path style="opacity:1" fill="#accad2" d="M 149.5,2.5 C 150.791,2.26269 151.791,2.59603 152.5,3.5C 150.925,5.11371 150.259,7.11371 150.5,9.5C 149.313,7.92751 148.313,6.26085 147.5,4.5C 147.833,3.5 148.5,2.83333 149.5,2.5 Z"/></g>
<g><path style="opacity:1" fill="#b2d2da" d="M 159.5,2.5 C 161.104,3.28696 161.771,4.6203 161.5,6.5C 161.029,7.90082 160.362,9.23415 159.5,10.5C 158.893,10.3764 158.56,10.0431 158.5,9.5C 158.5,8.16667 158.5,6.83333 158.5,5.5C 158.263,4.20895 158.596,3.20895 159.5,2.5 Z"/></g>
<g><path style="opacity:1" fill="#b7cfd9" d="M 1.5,4.5 C 2.16667,5.5 2.83333,6.5 3.5,7.5C 3.73286,9.06181 4.39952,10.3951 5.5,11.5C 4.16667,11.5 2.83333,11.5 1.5,11.5C 0.243655,9.059 0.243655,6.72567 1.5,4.5 Z"/></g>
<g><path style="opacity:1" fill="#b2cdd5" d="M 6.5,-0.5 C 7.5,-0.5 8.5,-0.5 9.5,-0.5C 10.6002,0.558465 11.9336,1.3918 13.5,2C 14.2524,2.67076 14.5858,3.5041 14.5,4.5C 13.791,5.40397 12.791,5.73731 11.5,5.5C 7.99614,2.4693 5.32947,3.13597 3.5,7.5C 2.83333,6.5 2.16667,5.5 1.5,4.5C 1.36899,3.76109 1.53566,3.09442 2,2.5C 3.65161,1.60064 5.15161,0.60064 6.5,-0.5 Z"/></g>
<g><path style="opacity:1" fill="#b5c9d3" d="M 88.5,5.5 C 83.6367,5.18054 78.97,5.51388 74.5,6.5C 71.8333,6.5 69.1667,6.5 66.5,6.5C 73.7768,4.48113 81.1102,4.14779 88.5,5.5 Z"/></g>
<g><path style="opacity:1" fill="#adcbd9" d="M 88.5,5.5 C 89.1667,5.5 89.8333,5.5 90.5,5.5C 88.4006,6.61185 86.0673,7.27852 83.5,7.5C 80.5176,7.96286 77.5176,8.29619 74.5,8.5C 74.5,7.83333 74.5,7.16667 74.5,6.5C 78.97,5.51388 83.6367,5.18054 88.5,5.5 Z"/></g>
<g><path style="opacity:1" fill="#b1cbd6" d="M 90.5,5.5 C 92.4147,5.21552 94.0813,5.54885 95.5,6.5C 94.5,7.16667 93.5,7.83333 92.5,8.5C 89.2869,8.81 86.2869,8.47667 83.5,7.5C 86.0673,7.27852 88.4006,6.61185 90.5,5.5 Z"/></g>
<g><path style="opacity:1" fill="#b3ccd4" d="M 64.5,6.5 C 65.1834,8.17649 66.5168,8.84316 68.5,8.5C 67.4324,9.43448 66.099,9.76781 64.5,9.5C 62.5648,8.85048 60.5648,8.51715 58.5,8.5C 60.3024,7.5418 62.3024,6.87513 64.5,6.5 Z"/></g>
<g><path style="opacity:1" fill="#b3d3db" d="M 64.5,6.5 C 65.1667,6.5 65.8333,6.5 66.5,6.5C 69.1667,6.5 71.8333,6.5 74.5,6.5C 74.5,7.16667 74.5,7.83333 74.5,8.5C 72.5,8.5 70.5,8.5 68.5,8.5C 66.5168,8.84316 65.1834,8.17649 64.5,6.5 Z"/></g>
<g><path style="opacity:1" fill="#b3ced6" d="M 95.5,6.5 C 97.5648,6.51715 99.5648,6.85048 101.5,7.5C 100.5,8.16667 99.5,8.83333 98.5,9.5C 96.3792,9.67474 94.3792,9.34141 92.5,8.5C 93.5,7.83333 94.5,7.16667 95.5,6.5 Z"/></g>
<g><path style="opacity:1" fill="#b2c9d3" d="M 58.5,8.5 C 60.5648,8.51715 62.5648,8.85048 64.5,9.5C 60.9143,10.8087 57.2477,12.1421 53.5,13.5C 52.7095,12.5987 51.7095,11.9321 50.5,11.5C 52.8902,9.98023 55.5568,8.98023 58.5,8.5 Z"/></g>
<g><path style="opacity:1" fill="#b4ced7" d="M 147.5,4.5 C 148.313,6.26085 149.313,7.92751 150.5,9.5C 151.167,10.1667 151.833,10.8333 152.5,11.5C 152.5,11.8333 152.5,12.1667 152.5,12.5C 150.95,13.7199 149.284,13.7199 147.5,12.5C 146.286,9.79599 146.286,7.12933 147.5,4.5 Z"/></g>
<g><path style="opacity:1" fill="#b1cbd5" d="M 101.5,7.5 C 103.403,7.79586 105.07,8.46253 106.5,9.5C 106.5,10.5 106.5,11.5 106.5,12.5C 103.603,11.871 100.936,10.871 98.5,9.5C 99.5,8.83333 100.5,8.16667 101.5,7.5 Z"/></g>
<g><path style="opacity:1" fill="#aec9d0" d="M 106.5,9.5 C 108.553,9.40206 110.22,10.0687 111.5,11.5C 108.903,11.7208 108.903,12.2208 111.5,13C 110.944,13.3826 110.611,13.8826 110.5,14.5C 109.167,13.8333 107.833,13.1667 106.5,12.5C 106.5,11.5 106.5,10.5 106.5,9.5 Z"/></g>
<g><path style="opacity:1" fill="#b1c8d1" d="M 161.5,6.5 C 162.092,11.2946 159.759,14.2946 154.5,15.5C 153.584,15.4573 152.917,15.1239 152.5,14.5C 154.933,13.4523 154.933,12.7856 152.5,12.5C 152.5,12.1667 152.5,11.8333 152.5,11.5C 154.858,11.7475 156.858,11.0808 158.5,9.5C 158.56,10.0431 158.893,10.3764 159.5,10.5C 160.362,9.23415 161.029,7.90082 161.5,6.5 Z"/></g>
<g><path style="opacity:1" fill="#b0cdd2" d="M 1.5,11.5 C 2.83333,11.5 4.16667,11.5 5.5,11.5C 6.5,11.5 7.5,11.5 8.5,11.5C 8.5,11.8333 8.5,12.1667 8.5,12.5C 7.5,13.1667 6.5,13.8333 5.5,14.5C 3.59565,14.2624 2.26231,13.2624 1.5,11.5 Z"/></g>
<g><path style="opacity:1" fill="#b2ccd3" d="M 14.5,4.5 C 15.7665,6.69426 15.7665,9.02759 14.5,11.5C 15.3398,12.735 16.3398,13.735 17.5,14.5C 16.391,14.5569 15.391,14.8902 14.5,15.5C 13.391,15.4431 12.391,15.1098 11.5,14.5C 11.6107,13.8826 11.944,13.3826 12.5,13C 11.2068,12.51 9.87344,12.3433 8.5,12.5C 8.5,12.1667 8.5,11.8333 8.5,11.5C 11.6646,10.5046 12.6646,8.50456 11.5,5.5C 12.791,5.73731 13.791,5.40397 14.5,4.5 Z"/></g>
<g><path style="opacity:1" fill="#b4ced9" d="M 8.5,12.5 C 9.87344,12.3433 11.2068,12.51 12.5,13C 11.944,13.3826 11.6107,13.8826 11.5,14.5C 9.3469,15.5729 7.3469,15.5729 5.5,14.5C 6.5,13.8333 7.5,13.1667 8.5,12.5 Z"/></g>
<g><path style="opacity:1" fill="#b8d2d8" d="M 50.5,11.5 C 51.7095,11.9321 52.7095,12.5987 53.5,13.5C 51.5,14.1667 49.5,14.8333 47.5,15.5C 47.1667,14.8333 46.8333,14.1667 46.5,13.5C 47.5137,12.3263 48.847,11.6596 50.5,11.5 Z"/></g>
<g><path style="opacity:1" fill="#b6d1db" d="M 147.5,12.5 C 149.284,13.7199 150.95,13.7199 152.5,12.5C 154.933,12.7856 154.933,13.4523 152.5,14.5C 151.041,14.4326 149.708,14.7659 148.5,15.5C 147.609,14.8902 146.609,14.5569 145.5,14.5C 145.833,13.5 146.5,12.8333 147.5,12.5 Z"/></g>
<g><path style="opacity:1" fill="#b4ced8" d="M 46.5,13.5 C 46.8333,14.1667 47.1667,14.8333 47.5,15.5C 43.3782,18.734 39.0449,21.734 34.5,24.5C 33.7611,24.631 33.0944,24.4643 32.5,24C 33.2524,23.3292 33.5858,22.4959 33.5,21.5C 37.3595,18.0699 41.6928,15.4032 46.5,13.5 Z"/></g>
<g><path style="opacity:1" fill="#b6ccd6" d="M 17.5,14.5 C 17.8333,15.1667 18.1667,15.8333 18.5,16.5C 18.5,17.5 18.5,18.5 18.5,19.5C 16.2273,19.0432 14.894,17.7099 14.5,15.5C 15.391,14.8902 16.391,14.5569 17.5,14.5 Z"/></g>
<g><path style="opacity:1" fill="#b2cbd4" d="M 111.5,11.5 C 115.302,12.3197 118.636,13.9864 121.5,16.5C 120.89,17.391 120.557,18.391 120.5,19.5C 117.45,17.3084 114.117,15.6417 110.5,14.5C 110.611,13.8826 110.944,13.3826 111.5,13C 108.903,12.2208 108.903,11.7208 111.5,11.5 Z"/></g>
<g><path style="opacity:1" fill="#b3cad6" d="M 145.5,14.5 C 146.609,14.5569 147.609,14.8902 148.5,15.5C 146.167,18.5 143.5,21.1667 140.5,23.5C 141.405,22.0357 141.405,20.7024 140.5,19.5C 141.833,17.5 143.5,15.8333 145.5,14.5 Z"/></g>
<g><path style="opacity:1" fill="#aec9d5" d="M 86.5,20.5 C 84.901,20.2322 83.5676,20.5655 82.5,21.5C 79.6146,21.8064 76.9479,21.4731 74.5,20.5C 78.5,19.1667 82.5,19.1667 86.5,20.5 Z"/></g>
<g><path style="opacity:1" fill="#b5ced8" d="M 121.5,16.5 C 125.238,18.697 128.571,21.3637 131.5,24.5C 130.508,24.3284 129.842,24.6618 129.5,25.5C 126.518,23.5258 123.518,21.5258 120.5,19.5C 120.557,18.391 120.89,17.391 121.5,16.5 Z"/></g>
<g><path style="opacity:1" fill="#b5cfd9" d="M 140.5,19.5 C 141.405,20.7024 141.405,22.0357 140.5,23.5C 139.5,25.1667 138.167,26.5 136.5,27.5C 134.007,27.8693 133.34,27.2027 134.5,25.5C 136.167,23.1667 138.167,21.1667 140.5,19.5 Z"/></g>
<g><path style="opacity:1" fill="#b2ced7" d="M 18.5,16.5 C 21.8953,19.9015 25.562,22.9015 29.5,25.5C 29.5,25.8333 29.5,26.1667 29.5,26.5C 28.5637,27.9744 27.2303,28.9744 25.5,29.5C 23.1667,26.1667 20.8333,22.8333 18.5,19.5C 18.5,18.5 18.5,17.5 18.5,16.5 Z"/></g>
<g><path style="opacity:1" fill="#b4d2dc" d="M 74.5,20.5 C 76.9479,21.4731 79.6146,21.8064 82.5,21.5C 79.8333,22.1667 77.1667,22.8333 74.5,23.5C 73.5,23.5 72.5,23.5 71.5,23.5C 70.1266,23.6567 68.7932,23.49 67.5,23C 68.056,22.6174 68.3893,22.1174 68.5,21.5C 70.2646,20.5386 72.2646,20.2053 74.5,20.5 Z"/></g>
<g><path style="opacity:1" fill="#aecbd3" d="M 86.5,20.5 C 87.8333,20.5 89.1667,20.5 90.5,20.5C 91.0906,21.1515 91.7573,21.8182 92.5,22.5C 92.3764,23.1067 92.0431,23.44 91.5,23.5C 85.8333,23.5 80.1667,23.5 74.5,23.5C 77.1667,22.8333 79.8333,22.1667 82.5,21.5C 83.5676,20.5655 84.901,20.2322 86.5,20.5 Z"/></g>
<g><path style="opacity:1" fill="#b1cdd4" d="M 68.5,21.5 C 68.3893,22.1174 68.056,22.6174 67.5,23C 68.7932,23.49 70.1266,23.6567 71.5,23.5C 69.0948,24.7682 66.4282,25.4349 63.5,25.5C 61.7839,25.3713 60.1172,25.038 58.5,24.5C 61.4525,22.5902 64.7858,21.5902 68.5,21.5 Z"/></g>
<g><path style="opacity:1" fill="#b1c7cf" d="M 90.5,20.5 C 93.0673,20.7215 95.4006,21.3882 97.5,22.5C 96.7611,22.369 96.0944,22.5357 95.5,23C 96.756,23.4169 97.4226,24.2502 97.5,25.5C 95.3024,25.1249 93.3024,24.4582 91.5,23.5C 92.0431,23.44 92.3764,23.1067 92.5,22.5C 91.7573,21.8182 91.0906,21.1515 90.5,20.5 Z"/></g>
<g><path style="opacity:1" fill="#b4ced8" d="M 97.5,22.5 C 101.743,23.2476 105.743,24.5809 109.5,26.5C 108.71,27.4013 107.71,28.0679 106.5,28.5C 103.421,27.696 100.421,26.696 97.5,25.5C 97.4226,24.2502 96.756,23.4169 95.5,23C 96.0944,22.5357 96.7611,22.369 97.5,22.5 Z"/></g>
<g><path style="opacity:1" fill="#b0cad0" d="M 33.5,21.5 C 33.5858,22.4959 33.2524,23.3292 32.5,24C 33.0944,24.4643 33.7611,24.631 34.5,24.5C 34.0269,25.9063 33.0269,26.573 31.5,26.5C 30.8333,26.5 30.1667,26.5 29.5,26.5C 29.5,26.1667 29.5,25.8333 29.5,25.5C 30.5,23.8333 31.8333,22.5 33.5,21.5 Z"/></g>
<g><path style="opacity:1" fill="#afc6d0" d="M 55.5,25.5 C 56.209,24.596 57.209,24.2627 58.5,24.5C 60.1172,25.038 61.7839,25.3713 63.5,25.5C 61.5739,26.4861 59.5739,27.4861 57.5,28.5C 57.7148,26.8212 57.0481,25.8212 55.5,25.5 Z"/></g>
<g><path style="opacity:1" fill="#b6d5df" d="M 131.5,24.5 C 132.391,25.1098 133.391,25.4431 134.5,25.5C 133.34,27.2027 134.007,27.8693 136.5,27.5C 136.5,27.8333 136.5,28.1667 136.5,28.5C 135.518,29.1408 134.518,29.8075 133.5,30.5C 132.818,29.7573 132.151,29.0906 131.5,28.5C 130.833,27.5 130.167,26.5 129.5,25.5C 129.842,24.6618 130.508,24.3284 131.5,24.5 Z"/></g>
<g><path style="opacity:1" fill="#b4ced8" d="M 55.5,25.5 C 57.0481,25.8212 57.7148,26.8212 57.5,28.5C 51.522,30.8213 46.1886,34.1546 41.5,38.5C 41.1667,38.5 40.8333,38.5 40.5,38.5C 39.6522,37.375 38.6522,37.375 37.5,38.5C 35.9689,37.0755 36.3023,36.4088 38.5,36.5C 43.6559,32.0859 49.3225,28.4193 55.5,25.5 Z"/></g>
<g><path style="opacity:1" fill="#b3cad0" d="M 109.5,26.5 C 110.872,27.5116 112.205,28.5116 113.5,29.5C 112.167,29.5 111.5,30.1667 111.5,31.5C 109.632,30.7368 107.965,29.7368 106.5,28.5C 107.71,28.0679 108.71,27.4013 109.5,26.5 Z"/></g>
<g><path style="opacity:1" fill="#b4d1d7" d="M 29.5,26.5 C 30.1667,26.5 30.8333,26.5 31.5,26.5C 31.5,26.8333 31.5,27.1667 31.5,27.5C 30.1667,28.8333 28.8333,30.1667 27.5,31.5C 26.5275,33.1392 25.1942,34.4726 23.5,35.5C 23.0742,34.4721 23.0742,33.1388 23.5,31.5C 23.8333,30.5 24.5,29.8333 25.5,29.5C 27.2303,28.9744 28.5637,27.9744 29.5,26.5 Z"/></g>
<g><path style="opacity:1" fill="#b1ccd5" d="M 113.5,29.5 C 115.434,30.1103 117.101,31.1103 118.5,32.5C 117.5,32.8333 116.833,33.5 116.5,34.5C 114.566,33.8897 112.899,32.8897 111.5,31.5C 111.5,30.1667 112.167,29.5 113.5,29.5 Z"/></g>
<g><path style="opacity:1" fill="#b7cfd9" d="M 136.5,29.5 C 139.243,31.2393 141.243,33.5726 142.5,36.5C 141.508,36.3284 140.842,36.6618 140.5,37.5C 138.413,36.4154 137.08,34.7488 136.5,32.5C 136.5,31.5 136.5,30.5 136.5,29.5 Z"/></g>
<g><path style="opacity:1" fill="#b1c9d2" d="M 31.5,27.5 C 33.4273,30.7673 35.7606,33.7673 38.5,36.5C 36.3023,36.4088 35.9689,37.0755 37.5,38.5C 37.1667,38.5 36.8333,38.5 36.5,38.5C 33.7673,35.7606 30.7673,33.4273 27.5,31.5C 28.8333,30.1667 30.1667,28.8333 31.5,27.5 Z"/></g>
<g><path style="opacity:1" fill="#b5cdd5" d="M 118.5,32.5 C 119.5,32.8333 120.167,33.5 120.5,34.5C 120.414,35.4959 120.748,36.3292 121.5,37C 120.906,37.4643 120.239,37.631 119.5,37.5C 118.167,36.8333 117.167,35.8333 116.5,34.5C 116.833,33.5 117.5,32.8333 118.5,32.5 Z"/></g>
<g><path style="opacity:1" fill="#b3cbd5" d="M 131.5,28.5 C 132.151,29.0906 132.818,29.7573 133.5,30.5C 134.518,29.8075 135.518,29.1408 136.5,28.5C 136.5,28.8333 136.5,29.1667 136.5,29.5C 136.5,30.5 136.5,31.5 136.5,32.5C 135.262,31.5876 133.928,31.4209 132.5,32C 130.63,34.0396 128.63,35.8729 126.5,37.5C 125.105,38.8146 124.105,38.4812 123.5,36.5C 126.167,33.8333 128.833,31.1667 131.5,28.5 Z"/></g>
<g><path style="opacity:1" fill="#b2d0d6" d="M 78.5,35.5 C 80.632,35.5544 81.9653,36.5544 82.5,38.5C 79.8333,38.5 77.1667,38.5 74.5,38.5C 75.4475,37.0221 76.7809,36.0221 78.5,35.5 Z"/></g>
<g><path style="opacity:1" fill="#b2cbd6" d="M 23.5,31.5 C 23.0742,33.1388 23.0742,34.4721 23.5,35.5C 22.5254,37.7952 21.1921,39.7952 19.5,41.5C 18.7611,41.631 18.0944,41.4643 17.5,41C 18.2524,40.3292 18.5858,39.4959 18.5,38.5C 19.7859,35.883 21.4525,33.5496 23.5,31.5 Z"/></g>
<g><path style="opacity:1" fill="#b7d1da" d="M 76.5,35.5 C 77.1667,35.5 77.8333,35.5 78.5,35.5C 76.7809,36.0221 75.4475,37.0221 74.5,38.5C 72.0799,38.2924 69.7466,38.6258 67.5,39.5C 66.7025,39.0431 66.3691,38.3764 66.5,37.5C 69.5443,35.9886 72.8776,35.322 76.5,35.5 Z"/></g>
<g><path style="opacity:1" fill="#b1cad5" d="M 76.5,35.5 C 77.6216,34.8442 78.9549,34.5108 80.5,34.5C 85.7622,34.8633 90.7622,35.8633 95.5,37.5C 95.4431,38.609 95.1098,39.609 94.5,40.5C 90.6742,39.0003 86.6742,38.3336 82.5,38.5C 81.9653,36.5544 80.632,35.5544 78.5,35.5C 77.8333,35.5 77.1667,35.5 76.5,35.5 Z"/></g>
<g><path style="opacity:1" fill="#acc6d0" d="M 120.5,34.5 C 121.5,35.1667 122.5,35.8333 123.5,36.5C 124.105,38.4812 125.105,38.8146 126.5,37.5C 126.5,38.5 126.5,39.5 126.5,40.5C 125.761,40.369 125.094,40.5357 124.5,41C 125.252,41.6708 125.586,42.5041 125.5,43.5C 124.609,42.8902 123.609,42.5569 122.5,42.5C 123.585,38.9018 122.918,38.2351 120.5,40.5C 120.443,39.391 120.11,38.391 119.5,37.5C 120.239,37.631 120.906,37.4643 121.5,37C 120.748,36.3292 120.414,35.4959 120.5,34.5 Z"/></g>
<g><path style="opacity:1" fill="#afced5" d="M 142.5,36.5 C 144.326,38.1475 145.66,40.1475 146.5,42.5C 145.738,42.0732 144.738,42.0732 143.5,42.5C 142.11,41.1007 141.11,39.4341 140.5,37.5C 140.842,36.6618 141.508,36.3284 142.5,36.5 Z"/></g>
<g><path style="opacity:1" fill="#b1cdd6" d="M 40.5,38.5 C 39.7375,39.2679 38.7375,39.7679 37.5,40C 38.056,40.3826 38.3893,40.8826 38.5,41.5C 36.1667,44.8333 33.8333,48.1667 31.5,51.5C 29.5891,51.5743 28.4224,52.5743 28,54.5C 27.5357,53.9056 27.369,53.2389 27.5,52.5C 29.6851,47.3138 32.6851,42.6471 36.5,38.5C 36.8333,38.5 37.1667,38.5 37.5,38.5C 38.6522,37.375 39.6522,37.375 40.5,38.5 Z"/></g>
<g><path style="opacity:1" fill="#b0c6d1" d="M 66.5,37.5 C 66.3691,38.3764 66.7025,39.0431 67.5,39.5C 69.7466,38.6258 72.0799,38.2924 74.5,38.5C 71.2737,39.4887 67.9404,40.4887 64.5,41.5C 63.8333,40.8333 63.1667,40.1667 62.5,39.5C 63.5137,38.3263 64.847,37.6596 66.5,37.5 Z"/></g>
<g><path style="opacity:1" fill="#b7d0d8" d="M 95.5,37.5 C 97.6854,37.7036 99.6854,38.3702 101.5,39.5C 100.5,40.1667 99.5,40.8333 98.5,41.5C 97.1667,41.1667 95.8333,40.8333 94.5,40.5C 95.1098,39.609 95.4431,38.609 95.5,37.5 Z"/></g>
<g><path style="opacity:1" fill="#b9d7e0" d="M 40.5,38.5 C 40.8333,38.5 41.1667,38.5 41.5,38.5C 41.5569,39.609 41.8902,40.609 42.5,41.5C 42.5,42.5 42.5,43.5 42.5,44.5C 41.1667,43.5 39.8333,42.5 38.5,41.5C 38.3893,40.8826 38.056,40.3826 37.5,40C 38.7375,39.7679 39.7375,39.2679 40.5,38.5 Z"/></g>
<g><path style="opacity:1" fill="#b1cbd5" d="M 101.5,39.5 C 105.221,41.3535 108.554,43.6869 111.5,46.5C 110.126,46.7921 108.793,47.1254 107.5,47.5C 104.635,45.2387 101.635,43.2387 98.5,41.5C 99.5,40.8333 100.5,40.1667 101.5,39.5 Z"/></g>
<g><path style="opacity:1" fill="#b4cfd7" d="M 122.5,42.5 C 122.167,43.5 121.5,44.1667 120.5,44.5C 118.821,44.7148 117.821,44.0481 117.5,42.5C 118.5,41.8333 119.5,41.1667 120.5,40.5C 122.918,38.2351 123.585,38.9018 122.5,42.5 Z"/></g>
<g><path style="opacity:1" fill="#b8d3da" d="M 62.5,39.5 C 63.1667,40.1667 63.8333,40.8333 64.5,41.5C 62.2872,42.7729 59.9538,43.7729 57.5,44.5C 56.8843,43.7978 56.8843,42.7978 57.5,41.5C 59.0495,40.5592 60.7162,39.8925 62.5,39.5 Z"/></g>
<g><path style="opacity:1" fill="#bad1db" d="M 42.5,41.5 C 44.1405,42.147 45.4739,43.147 46.5,44.5C 46.33,45.8221 46.6634,46.9887 47.5,48C 46.9056,48.4643 46.2389,48.631 45.5,48.5C 44.5,47.1667 43.5,45.8333 42.5,44.5C 42.5,43.5 42.5,42.5 42.5,41.5 Z"/></g>
<g><path style="opacity:1" fill="#afc5cc" d="M 117.5,42.5 C 117.821,44.0481 118.821,44.7148 120.5,44.5C 119.167,46.5 117.5,48.1667 115.5,49.5C 115.5,48.1667 115.5,46.8333 115.5,45.5C 115.427,43.9731 116.094,42.9731 117.5,42.5 Z"/></g>
<g><path style="opacity:1" fill="#b3cdd5" d="M 126.5,40.5 C 128.633,42.0905 130.299,44.0905 131.5,46.5C 130.5,46.8333 129.833,47.5 129.5,48.5C 127.937,47.0552 126.604,45.3885 125.5,43.5C 125.586,42.5041 125.252,41.6708 124.5,41C 125.094,40.5357 125.761,40.369 126.5,40.5 Z"/></g>
<g><path style="opacity:1" fill="#b8cfd6" d="M 18.5,38.5 C 18.5858,39.4959 18.2524,40.3292 17.5,41C 18.0944,41.4643 18.7611,41.631 19.5,41.5C 19.1667,42.1667 18.8333,42.8333 18.5,43.5C 16.7428,44.292 15.4095,45.6253 14.5,47.5C 13.8933,47.3764 13.56,47.0431 13.5,46.5C 14.3833,43.2957 16.0499,40.6291 18.5,38.5 Z"/></g>
<g><path style="opacity:1" fill="#bad1dd" d="M 146.5,42.5 C 148.341,44.8485 149.674,47.5152 150.5,50.5C 149.167,49.8333 147.833,49.1667 146.5,48.5C 145.5,46.5 144.5,44.5 143.5,42.5C 144.738,42.0732 145.738,42.0732 146.5,42.5 Z"/></g>
<g><path style="opacity:1" fill="#acc5cf" d="M 46.5,44.5 C 47.4013,45.2905 48.0679,46.2905 48.5,47.5C 49.0469,49.712 48.0469,51.3787 45.5,52.5C 46.4054,51.0357 46.4054,49.7024 45.5,48.5C 46.2389,48.631 46.9056,48.4643 47.5,48C 46.6634,46.9887 46.33,45.8221 46.5,44.5 Z"/></g>
<g><path style="opacity:1" fill="#b1c8d2" d="M 18.5,43.5 C 16.7381,47.3617 14.7381,51.0283 12.5,54.5C 11.8333,53.8333 11.1667,53.1667 10.5,52.5C 10.9925,50.1815 11.9925,48.1815 13.5,46.5C 13.56,47.0431 13.8933,47.3764 14.5,47.5C 15.4095,45.6253 16.7428,44.292 18.5,43.5 Z"/></g>
<g><path style="opacity:1" fill="#b2cdd6" d="M 57.5,41.5 C 56.8843,42.7978 56.8843,43.7978 57.5,44.5C 55.9962,46.8356 53.9962,48.669 51.5,50C 53.3734,51.7038 55.0401,53.5372 56.5,55.5C 55.3684,56.3543 54.035,56.3543 52.5,55.5C 51.2876,54.7701 50.2876,53.7701 49.5,52.5C 48.4787,54.188 47.1454,55.5213 45.5,56.5C 45.5912,54.3023 44.9245,53.9689 43.5,55.5C 43.427,53.9731 44.0937,52.9731 45.5,52.5C 48.0469,51.3787 49.0469,49.712 48.5,47.5C 51.4822,45.5258 54.4822,43.5258 57.5,41.5 Z"/></g>
<g><path style="opacity:1" fill="#b0cdd6" d="M 115.5,45.5 C 115.5,46.8333 115.5,48.1667 115.5,49.5C 115.833,50.1667 116.167,50.8333 116.5,51.5C 116.631,52.3764 116.298,53.0431 115.5,53.5C 114.818,52.7573 114.151,52.0906 113.5,51.5C 112.058,50.1805 111.392,48.5138 111.5,46.5C 112.959,46.5674 114.292,46.2341 115.5,45.5 Z"/></g>
<g><path style="opacity:1" fill="#b4cfd9" d="M 91.5,51.5 C 91.7373,52.791 91.404,53.791 90.5,54.5C 85.5365,53.746 80.5365,53.4126 75.5,53.5C 72.4017,53.5875 72.0684,53.0875 74.5,52C 73.944,51.6174 73.6107,51.1174 73.5,50.5C 79.5239,49.4943 85.5239,49.8277 91.5,51.5 Z"/></g>
<g><path style="opacity:1" fill="#b6d0da" d="M 107.5,47.5 C 108.793,47.1254 110.126,46.7921 111.5,46.5C 111.392,48.5138 112.058,50.1805 113.5,51.5C 113.167,52.1667 112.833,52.8333 112.5,53.5C 111.167,54.5 109.833,55.5 108.5,56.5C 107.89,55.609 107.557,54.609 107.5,53.5C 108.29,52.2058 109.29,51.0391 110.5,50C 109.627,48.955 108.627,48.1217 107.5,47.5 Z"/></g>
<g><path style="opacity:1" fill="#b3cdd6" d="M 146.5,48.5 C 147.833,49.1667 149.167,49.8333 150.5,50.5C 151.931,51.7804 152.598,53.4471 152.5,55.5C 151.226,56.1894 151.226,57.0228 152.5,58C 151.906,58.4643 151.239,58.631 150.5,58.5C 149.361,55.082 148.028,51.7487 146.5,48.5 Z"/></g>
<g><path style="opacity:1" fill="#b3ccd6" d="M 131.5,46.5 C 133.56,49.2402 135.226,52.2402 136.5,55.5C 135.5,54.1667 134.5,54.1667 133.5,55.5C 131.917,53.3374 130.584,51.0041 129.5,48.5C 129.833,47.5 130.5,46.8333 131.5,46.5 Z"/></g>
<g><path style="opacity:1" fill="#b0c5cd" d="M 73.5,50.5 C 73.6107,51.1174 73.944,51.6174 74.5,52C 72.0684,53.0875 72.4017,53.5875 75.5,53.5C 73.9724,54.3092 72.3057,54.9759 70.5,55.5C 70.4431,54.391 70.1098,53.391 69.5,52.5C 70.6715,51.6554 72.0048,50.9887 73.5,50.5 Z"/></g>
<g><path style="opacity:1" fill="#b1cad4" d="M 113.5,51.5 C 114.151,52.0906 114.818,52.7573 115.5,53.5C 116.298,53.0431 116.631,52.3764 116.5,51.5C 118.192,53.2048 119.525,55.2048 120.5,57.5C 120.573,59.0269 119.906,60.0269 118.5,60.5C 117.2,57.5677 115.2,55.2344 112.5,53.5C 112.833,52.8333 113.167,52.1667 113.5,51.5 Z"/></g>
<g><path style="opacity:1" fill="#acc4cc" d="M 31.5,51.5 C 30.4043,54.0316 29.0709,56.3649 27.5,58.5C 27.573,56.9731 26.9063,55.9731 25.5,55.5C 25.9321,54.2905 26.5987,53.2905 27.5,52.5C 27.369,53.2389 27.5357,53.9056 28,54.5C 28.4224,52.5743 29.5891,51.5743 31.5,51.5 Z"/></g>
<g><path style="opacity:1" fill="#b4cdd8" d="M 69.5,52.5 C 70.1098,53.391 70.4431,54.391 70.5,55.5C 68.9505,56.4408 67.2838,57.1075 65.5,57.5C 64.5,57.1667 63.8333,56.5 63.5,55.5C 65.2163,53.9752 67.2163,52.9752 69.5,52.5 Z"/></g>
<g><path style="opacity:1" fill="#b5cfda" d="M 107.5,53.5 C 107.557,54.609 107.89,55.609 108.5,56.5C 107.075,57.922 106.075,59.5887 105.5,61.5C 104.833,61.5 104.167,61.5 103.5,61.5C 102.833,61.8333 102.167,62.1667 101.5,62.5C 101.414,61.5041 101.748,60.6708 102.5,60C 101.833,59.6667 101.167,59.3333 100.5,59C 101.784,58.3162 102.951,58.4829 104,59.5C 104.483,58.552 104.649,57.552 104.5,56.5C 105.167,55.1667 106.167,54.1667 107.5,53.5 Z"/></g>
<g><path style="opacity:1" fill="#b5cfd9" d="M 136.5,55.5 C 139.569,61.4428 141.236,67.7761 141.5,74.5C 140.833,74.5 140.167,74.5 139.5,74.5C 139.167,74.5 138.833,74.5 138.5,74.5C 137.612,67.9465 135.945,61.6131 133.5,55.5C 134.5,54.1667 135.5,54.1667 136.5,55.5 Z"/></g>
<g><path style="opacity:1" fill="#b5cdd8" d="M 10.5,52.5 C 11.1667,53.1667 11.8333,53.8333 12.5,54.5C 11.8699,58.0477 10.8699,61.3811 9.5,64.5C 9.3404,62.847 8.67373,61.5137 7.5,60.5C 8.50143,57.8284 9.50143,55.1618 10.5,52.5 Z"/></g>
<g><path style="opacity:1" fill="#b7cfd9" d="M 25.5,55.5 C 26.9063,55.9731 27.573,56.9731 27.5,58.5C 27.5,58.8333 27.5,59.1667 27.5,59.5C 26.1667,60.1667 24.8333,60.8333 23.5,61.5C 23.6036,59.2972 24.2702,57.2972 25.5,55.5 Z"/></g>
<g><path style="opacity:1" fill="#b5ced8" d="M 45.5,56.5 C 42.9569,61.594 40.9569,66.9274 39.5,72.5C 37.744,71.4479 37.0773,69.7812 37.5,67.5C 38.4598,62.9136 40.4598,58.9136 43.5,55.5C 44.9245,53.9689 45.5912,54.3023 45.5,56.5 Z"/></g>
<g><path style="opacity:1" fill="#afc8d1" d="M 52.5,55.5 C 54.035,56.3543 55.3684,56.3543 56.5,55.5C 57.5,55.8333 58.1667,56.5 58.5,57.5C 57.596,58.209 57.2627,59.209 57.5,60.5C 55.5,59.1667 53.8333,57.5 52.5,55.5 Z"/></g>
<g><path style="opacity:1" fill="#b3cad4" d="M 91.5,51.5 C 94.8057,52.8202 97.8057,54.6535 100.5,57C 101.928,57.5791 103.262,57.4124 104.5,56.5C 104.649,57.552 104.483,58.552 104,59.5C 102.951,58.4829 101.784,58.3162 100.5,59C 101.167,59.3333 101.833,59.6667 102.5,60C 101.748,60.6708 101.414,61.5041 101.5,62.5C 100.5,62.5 99.5,62.5 98.5,62.5C 98.8039,61.8501 99.1373,61.1835 99.5,60.5C 96.6065,58.2285 93.6065,56.2285 90.5,54.5C 91.404,53.791 91.7373,52.791 91.5,51.5 Z"/></g>
<g><path style="opacity:1" fill="#b4d1dc" d="M 58.5,57.5 C 58.8333,57.5 59.1667,57.5 59.5,57.5C 61.744,58.6116 61.744,60.1116 59.5,62C 60.056,62.3826 60.3893,62.8826 60.5,63.5C 60.1667,63.5 59.8333,63.5 59.5,63.5C 58.1667,63.5 57.5,62.8333 57.5,61.5C 57.5,61.1667 57.5,60.8333 57.5,60.5C 57.2627,59.209 57.596,58.209 58.5,57.5 Z"/></g>
<g><path style="opacity:1" fill="#afc8d3" d="M 63.5,55.5 C 63.8333,56.5 64.5,57.1667 65.5,57.5C 64.7101,58.7942 63.7101,59.9609 62.5,61C 63.056,61.3826 63.3893,61.8826 63.5,62.5C 60.9028,62.7208 60.9028,63.2208 63.5,64C 62.9056,64.4643 62.2389,64.631 61.5,64.5C 60.8333,64.5 60.5,64.1667 60.5,63.5C 60.3893,62.8826 60.056,62.3826 59.5,62C 61.744,60.1116 61.744,58.6116 59.5,57.5C 61.0618,57.2671 62.3951,56.6005 63.5,55.5 Z"/></g>
<g><path style="opacity:1" fill="#aac3cc" d="M 120.5,57.5 C 121.401,58.2905 122.068,59.2905 122.5,60.5C 121.539,62.2646 121.205,64.2646 121.5,66.5C 120.514,64.5739 119.514,62.5739 118.5,60.5C 119.906,60.0269 120.573,59.0269 120.5,57.5 Z"/></g>
<g><path style="opacity:1" fill="#b1c8d2" d="M 152.5,55.5 C 153.871,57.936 154.871,60.6027 155.5,63.5C 154.883,63.3893 154.383,63.056 154,62.5C 153.505,64.4727 153.338,66.4727 153.5,68.5C 152.511,65.2737 151.511,61.9404 150.5,58.5C 151.239,58.631 151.906,58.4643 152.5,58C 151.226,57.0228 151.226,56.1894 152.5,55.5 Z"/></g>
<g><path style="opacity:1" fill="#adc5ce" d="M 27.5,59.5 C 26.7949,62.3542 25.7949,65.0209 24.5,67.5C 23.2086,66.5272 23.2086,65.5272 24.5,64.5C 24.0431,63.7025 23.3764,63.3691 22.5,63.5C 22.3284,62.5084 22.6618,61.8417 23.5,61.5C 24.8333,60.8333 26.1667,60.1667 27.5,59.5 Z"/></g>
<g><path style="opacity:1" fill="#b3ccd6" d="M 103.5,61.5 C 103.5,62.5 103.5,63.5 103.5,64.5C 102.883,64.3893 102.383,64.056 102,63.5C 100.629,65.0414 99.1288,66.3747 97.5,67.5C 97.3893,66.8826 97.056,66.3826 96.5,66C 97.8228,65.1841 98.4894,64.0174 98.5,62.5C 99.5,62.5 100.5,62.5 101.5,62.5C 102.167,62.1667 102.833,61.8333 103.5,61.5 Z"/></g>
<g><path style="opacity:1" fill="#b3cbd3" d="M 103.5,61.5 C 104.167,61.5 104.833,61.5 105.5,61.5C 107.025,63.2163 108.025,65.2163 108.5,67.5C 107.883,67.3893 107.383,67.056 107,66.5C 106.722,67.4158 106.222,68.0825 105.5,68.5C 104.833,67.1667 104.167,65.8333 103.5,64.5C 103.5,63.5 103.5,62.5 103.5,61.5 Z"/></g>
<g><path style="opacity:1" fill="#b5d0d8" d="M 122.5,60.5 C 123.363,62.4214 124.029,64.4214 124.5,66.5C 123.167,66.5 122.5,67.1667 122.5,68.5C 121.662,68.1583 121.328,67.4916 121.5,66.5C 121.205,64.2646 121.539,62.2646 122.5,60.5 Z"/></g>
<g><path style="opacity:1" fill="#b5ced7" d="M 57.5,61.5 C 57.5,62.8333 58.1667,63.5 59.5,63.5C 58.1667,65.8333 56.8333,68.1667 55.5,70.5C 54.0937,70.0269 53.427,69.0269 53.5,67.5C 54.3403,65.1475 55.6736,63.1475 57.5,61.5 Z"/></g>
<g><path style="opacity:1" fill="#b5ccd7" d="M 63.5,62.5 C 65.8333,64.1667 67.8333,66.1667 69.5,68.5C 68.209,68.2627 67.209,68.596 66.5,69.5C 64.5,68.1667 62.8333,66.5 61.5,64.5C 62.2389,64.631 62.9056,64.4643 63.5,64C 60.9028,63.2208 60.9028,62.7208 63.5,62.5 Z"/></g>
<g><path style="opacity:1" fill="#afcdd4" d="M 7.5,60.5 C 8.67373,61.5137 9.3404,62.847 9.5,64.5C 9.38413,67.8599 9.0508,71.1933 8.5,74.5C 7.83333,71.8333 7.16667,69.1667 6.5,66.5C 6.51715,64.4352 6.85048,62.4352 7.5,60.5 Z"/></g>
<g><path style="opacity:1" fill="#b5cdd7" d="M 22.5,63.5 C 23.3764,63.3691 24.0431,63.7025 24.5,64.5C 23.2086,65.5272 23.2086,66.5272 24.5,67.5C 24.552,69.9029 24.2186,72.2362 23.5,74.5C 23.1667,74.5 22.8333,74.5 22.5,74.5C 21.8333,74.5 21.1667,74.5 20.5,74.5C 20.4165,70.6648 21.0832,66.9981 22.5,63.5 Z"/></g>
<g><path style="opacity:1" fill="#b3cdd6" d="M 84.5,65.5 C 83.3065,66.2719 82.3065,67.2719 81.5,68.5C 72.6081,69.883 71.9414,71.883 79.5,74.5C 79.44,75.0431 79.1067,75.3764 78.5,75.5C 76.8045,74.8256 75.1379,74.1589 73.5,73.5C 71.5,72.8333 69.5,72.1667 67.5,71.5C 67.5,71.1667 67.5,70.8333 67.5,70.5C 69.1368,71.2178 70.8034,71.3845 72.5,71C 73.8825,69.5391 73.5492,68.7058 71.5,68.5C 75.4872,65.6729 79.8205,64.6729 84.5,65.5 Z"/></g>
<g><path style="opacity:1" fill="#b4ceda" d="M 84.5,65.5 C 86.153,65.6596 87.4863,66.3263 88.5,67.5C 87.0813,68.4511 85.4147,68.7845 83.5,68.5C 82.8333,68.5 82.1667,68.5 81.5,68.5C 82.3065,67.2719 83.3065,66.2719 84.5,65.5 Z"/></g>
<g><path style="opacity:1" fill="#b0c8d0" d="M 98.5,62.5 C 98.4894,64.0174 97.8228,65.1841 96.5,66C 97.056,66.3826 97.3893,66.8826 97.5,67.5C 97.5,68.8333 96.8333,69.5 95.5,69.5C 94.791,68.596 93.791,68.2627 92.5,68.5C 94.1667,66.1667 96.1667,64.1667 98.5,62.5 Z"/></g>
<g><path style="opacity:1" fill="#adc6cd" d="M 88.5,67.5 C 89.8333,67.8333 91.1667,68.1667 92.5,68.5C 90.8333,69.5 89.5,70.8333 88.5,72.5C 87.4093,70.4658 85.7426,69.1324 83.5,68.5C 85.4147,68.7845 87.0813,68.4511 88.5,67.5 Z"/></g>
<g><path style="opacity:1" fill="#b1d2d8" d="M 69.5,68.5 C 70.1667,68.5 70.8333,68.5 71.5,68.5C 73.5492,68.7058 73.8825,69.5391 72.5,71C 70.8034,71.3845 69.1368,71.2178 67.5,70.5C 66.8333,70.5 66.5,70.1667 66.5,69.5C 67.209,68.596 68.209,68.2627 69.5,68.5 Z"/></g>
<g><path style="opacity:1" fill="#b0c8d4" d="M 108.5,67.5 C 109.167,67.5 109.5,67.8333 109.5,68.5C 108.539,70.2646 108.205,72.2646 108.5,74.5C 107.514,72.5739 106.514,70.5739 105.5,68.5C 106.222,68.0825 106.722,67.4158 107,66.5C 107.383,67.056 107.883,67.3893 108.5,67.5 Z"/></g>
<g><path style="opacity:1" fill="#afc7d1" d="M 124.5,66.5 C 125.338,66.8417 125.672,67.5084 125.5,68.5C 124.609,69.2613 123.942,70.2613 123.5,71.5C 124.804,76.63 124.804,81.63 123.5,86.5C 123.575,80.4707 123.241,74.4707 122.5,68.5C 122.5,67.1667 123.167,66.5 124.5,66.5 Z"/></g>
<g><path style="opacity:1" fill="#b2cad4" d="M 53.5,67.5 C 53.427,69.0269 54.0937,70.0269 55.5,70.5C 53.3994,76.4041 53.0661,82.4041 54.5,88.5C 52.5369,84.815 51.2035,80.815 50.5,76.5C 50.9281,73.2154 51.9281,70.2154 53.5,67.5 Z"/></g>
<g><path style="opacity:1" fill="#b1cbd3" d="M 155.5,63.5 C 157.443,71.5865 157.776,79.5865 156.5,87.5C 156.826,83.1161 156.492,78.7828 155.5,74.5C 154.534,76.396 154.201,78.396 154.5,80.5C 153.517,76.7016 153.183,72.7016 153.5,68.5C 153.338,66.4727 153.505,64.4727 154,62.5C 154.383,63.056 154.883,63.3893 155.5,63.5 Z"/></g>
<g><path style="opacity:1" fill="#b3d1d8" d="M 109.5,68.5 C 110.234,69.7079 110.567,71.0413 110.5,72.5C 111.01,75.3878 110.344,77.7211 108.5,79.5C 108.5,77.8333 108.5,76.1667 108.5,74.5C 108.205,72.2646 108.539,70.2646 109.5,68.5 Z"/></g>
<g><path style="opacity:1" fill="#b0c9d1" d="M 37.5,67.5 C 37.0773,69.7812 37.744,71.4479 39.5,72.5C 39.6716,73.4916 39.3382,74.1583 38.5,74.5C 37.8826,74.3893 37.3826,74.056 37,73.5C 36.5006,79.1569 36.3339,84.8236 36.5,90.5C 35.346,84.013 35.1794,77.3464 36,70.5C 36.2321,69.2625 36.7321,68.2625 37.5,67.5 Z"/></g>
<g><path style="opacity:1" fill="#bad6de" d="M 92.5,68.5 C 93.791,68.2627 94.791,68.596 95.5,69.5C 95.5,69.8333 95.5,70.1667 95.5,70.5C 93.0582,70.1192 92.3915,70.7859 93.5,72.5C 93.1543,73.6956 92.6543,73.6956 92,72.5C 91.5357,73.0944 91.369,73.7611 91.5,74.5C 91.1667,74.5 90.8333,74.5 90.5,74.5C 88.9731,74.573 87.9731,73.9063 87.5,72.5C 87.8333,72.5 88.1667,72.5 88.5,72.5C 89.5,70.8333 90.8333,69.5 92.5,68.5 Z"/></g>
<g><path style="opacity:1" fill="#b0c7d1" d="M 95.5,70.5 C 94.438,72.0992 94.438,73.7659 95.5,75.5C 93.9519,75.8212 93.2852,76.8212 93.5,78.5C 92.6554,77.3285 91.9887,75.9952 91.5,74.5C 91.369,73.7611 91.5357,73.0944 92,72.5C 92.6543,73.6956 93.1543,73.6956 93.5,72.5C 92.3915,70.7859 93.0582,70.1192 95.5,70.5 Z"/></g>
<g><path style="opacity:1" fill="#afcad4" d="M 67.5,71.5 C 69.5,72.1667 71.5,72.8333 73.5,73.5C 73.5,74.1667 73.5,74.8333 73.5,75.5C 72.5041,75.5858 71.6708,75.2524 71,74.5C 70.0147,76.1749 69.1814,77.8415 68.5,79.5C 68.3689,77.3331 68.0356,77.1665 67.5,79C 66.7135,81.0989 66.3801,83.2655 66.5,85.5C 65.1947,80.8623 65.528,76.1956 67.5,71.5 Z"/></g>
<g><path style="opacity:1" fill="#acc6cd" d="M 87.5,72.5 C 87.9731,73.9063 88.9731,74.573 90.5,74.5C 89.4863,75.6737 88.153,76.3404 86.5,76.5C 85.4479,74.744 83.7812,74.0773 81.5,74.5C 83.3736,73.7148 85.3736,73.0482 87.5,72.5 Z"/></g>
<g><path style="opacity:1" fill="#b9d2dc" d="M 73.5,73.5 C 75.1379,74.1589 76.8045,74.8256 78.5,75.5C 79.1067,75.3764 79.44,75.0431 79.5,74.5C 80.1667,74.5 80.8333,74.5 81.5,74.5C 83.7812,74.0773 85.4479,74.744 86.5,76.5C 82.0218,78.0023 77.6884,77.669 73.5,75.5C 73.5,74.8333 73.5,74.1667 73.5,73.5 Z"/></g>
<g><path style="opacity:1" fill="#afccd5" d="M 6.5,66.5 C 7.16667,69.1667 7.83333,71.8333 8.5,74.5C 8.5,75.1667 8.5,75.8333 8.5,76.5C 7.6773,79.977 7.1773,83.6437 7,87.5C 6.61742,88.056 6.11742,88.3893 5.5,88.5C 4.2431,81.0778 4.57643,73.7445 6.5,66.5 Z"/></g>
<g><path style="opacity:1" fill="#b6ced7" d="M 95.5,75.5 C 96.2344,76.8775 96.9011,78.3775 97.5,80C 96.7655,83.5702 95.7655,87.0702 94.5,90.5C 93.5222,90.189 92.8555,89.5223 92.5,88.5C 94.3788,86.9303 94.7122,85.2637 93.5,83.5C 93.5,81.8333 93.5,80.1667 93.5,78.5C 93.2852,76.8212 93.9519,75.8212 95.5,75.5 Z"/></g>
<g><path style="opacity:1" fill="#acc7cf" d="M 110.5,72.5 C 111.254,75.0227 111.92,77.6894 112.5,80.5C 112.376,81.1067 112.043,81.44 111.5,81.5C 110.794,80.4427 110.461,80.7761 110.5,82.5C 109.833,82.5 109.167,82.5 108.5,82.5C 108.5,81.5 108.5,80.5 108.5,79.5C 110.344,77.7211 111.01,75.3878 110.5,72.5 Z"/></g>
<g><path style="opacity:1" fill="#aeced4" d="M 139.5,74.5 C 140.167,74.5 140.833,74.5 141.5,74.5C 142.702,79.6894 142.702,85.0227 141.5,90.5C 139.554,85.6042 138.887,80.2709 139.5,74.5 Z"/></g>
<g><path style="opacity:1" fill="#b9ced9" d="M 22.5,74.5 C 22.8333,74.5 23.1667,74.5 23.5,74.5C 23.5,79.8333 23.5,85.1667 23.5,90.5C 22.6586,92.3792 22.3253,94.3792 22.5,96.5C 21.5418,94.6976 20.8751,92.6976 20.5,90.5C 22.4461,85.6042 23.1128,80.2709 22.5,74.5 Z"/></g>
<g><path style="opacity:1" fill="#b0cdd6" d="M 125.5,68.5 C 128.268,77.7204 127.934,86.7204 124.5,95.5C 123.833,94.5 123.167,93.5 122.5,92.5C 122.517,90.4352 122.85,88.4352 123.5,86.5C 124.804,81.63 124.804,76.63 123.5,71.5C 123.942,70.2613 124.609,69.2613 125.5,68.5 Z"/></g>
<g><path style="opacity:1" fill="#b2d0de" d="M 38.5,74.5 C 38.5,78.8333 38.5,83.1667 38.5,87.5C 38.0679,88.7095 37.4013,89.7095 36.5,90.5C 36.3339,84.8236 36.5006,79.1569 37,73.5C 37.3826,74.056 37.8826,74.3893 38.5,74.5 Z"/></g>
<g><path style="opacity:1" fill="#aecdd5" d="M 20.5,74.5 C 21.1667,74.5 21.8333,74.5 22.5,74.5C 23.1128,80.2709 22.4461,85.6042 20.5,90.5C 19.4458,85.1433 19.4458,79.8099 20.5,74.5 Z"/></g>
<g><path style="opacity:1" fill="#b4d0d9" d="M 68.5,79.5 C 68.9628,82.221 69.6295,84.8877 70.5,87.5C 69.8333,87.5 69.1667,87.5 68.5,87.5C 67.8333,87.5 67.1667,87.5 66.5,87.5C 66.5,86.8333 66.5,86.1667 66.5,85.5C 66.3801,83.2655 66.7135,81.0989 67.5,79C 68.0356,77.1665 68.3689,77.3331 68.5,79.5 Z"/></g>
<g><path style="opacity:1" fill="#b2cad3" d="M 86.5,85.5 C 84.1432,85.3367 81.8098,85.5034 79.5,86C 80.7375,86.2321 81.7375,86.7321 82.5,87.5C 79.1461,87.7475 76.1461,88.7475 73.5,90.5C 73.5,91.1667 73.1667,91.5 72.5,91.5C 71.8333,90.1667 71.1667,88.8333 70.5,87.5C 75.6392,84.4902 80.9726,83.8235 86.5,85.5 Z"/></g>
<g><path style="opacity:1" fill="#aec6ce" d="M 8.5,76.5 C 8.5,80.5 8.5,84.5 8.5,88.5C 6.92606,90.1016 6.25939,92.1016 6.5,94.5C 5.53862,92.7354 5.20528,90.7354 5.5,88.5C 6.11742,88.3893 6.61742,88.056 7,87.5C 7.1773,83.6437 7.6773,79.977 8.5,76.5 Z"/></g>
<g><path style="opacity:1" fill="#b4d1dc" d="M 50.5,76.5 C 51.2035,80.815 52.5369,84.815 54.5,88.5C 54.5,88.8333 54.5,89.1667 54.5,89.5C 54.631,90.2389 54.4643,90.9056 54,91.5C 53.3292,90.7476 52.4959,90.4142 51.5,90.5C 50.6864,85.8809 50.3531,81.2142 50.5,76.5 Z"/></g>
<g><path style="opacity:1" fill="#b9d5e0" d="M 68.5,87.5 C 69.1667,87.5 69.8333,87.5 70.5,87.5C 71.1667,88.8333 71.8333,90.1667 72.5,91.5C 71.1417,92.6256 69.8084,92.6256 68.5,91.5C 69.3629,90.2736 69.3629,88.9403 68.5,87.5 Z"/></g>
<g><path style="opacity:1" fill="#b4cdd6" d="M 86.5,85.5 C 88.153,85.6596 89.4863,86.3263 90.5,87.5C 89.8333,89.8333 89.1667,92.1667 88.5,94.5C 88.1583,95.3382 87.4916,95.6716 86.5,95.5C 85.8166,93.8235 84.4832,93.1568 82.5,93.5C 90.1016,91.2612 90.1016,89.2612 82.5,87.5C 81.7375,86.7321 80.7375,86.2321 79.5,86C 81.8098,85.5034 84.1432,85.3367 86.5,85.5 Z"/></g>
<g><path style="opacity:1" fill="#afcfd4" d="M 108.5,82.5 C 109.167,82.5 109.833,82.5 110.5,82.5C 110.397,85.6358 109.397,88.3025 107.5,90.5C 107.833,87.8333 108.167,85.1667 108.5,82.5 Z"/></g>
<g><path style="opacity:1" fill="#b6d1de" d="M 156.5,87.5 C 156.5,88.5 156.5,89.5 156.5,90.5C 155.833,90.5 155.167,90.5 154.5,90.5C 154.5,88.1667 154.5,85.8333 154.5,83.5C 154.5,82.5 154.5,81.5 154.5,80.5C 154.201,78.396 154.534,76.396 155.5,74.5C 156.492,78.7828 156.826,83.1161 156.5,87.5 Z"/></g>
<g><path style="opacity:1" fill="#b0cbd6" d="M 93.5,83.5 C 94.7122,85.2637 94.3788,86.9303 92.5,88.5C 92.8555,89.5223 93.5222,90.189 94.5,90.5C 95.1667,90.5 95.5,90.8333 95.5,91.5C 95.4431,92.609 95.1098,93.609 94.5,94.5C 92.5,93.1667 90.5,93.1667 88.5,94.5C 89.1667,92.1667 89.8333,89.8333 90.5,87.5C 91.8571,86.4097 92.8571,85.0764 93.5,83.5 Z"/></g>
<g><path style="opacity:1" fill="#b5cfd9" d="M 111.5,81.5 C 111.595,87.2101 110.262,92.5435 107.5,97.5C 105.952,97.1788 105.285,96.1788 105.5,94.5C 105.66,92.847 106.326,91.5137 107.5,90.5C 109.397,88.3025 110.397,85.6358 110.5,82.5C 110.461,80.7761 110.794,80.4427 111.5,81.5 Z"/></g>
<g><path style="opacity:1" fill="#b2ceda" d="M 8.5,88.5 C 9.42454,92.7902 10.0912,97.1235 10.5,101.5C 10.5,102.833 9.83333,103.5 8.5,103.5C 7.36639,100.63 6.69973,97.6296 6.5,94.5C 6.25939,92.1016 6.92606,90.1016 8.5,88.5 Z"/></g>
<g><path style="opacity:1" fill="#b4d0d7" d="M 38.5,87.5 C 39.531,89.9608 40.1977,92.6275 40.5,95.5C 39.5326,94.1938 38.1993,93.5271 36.5,93.5C 36.5,92.5 36.5,91.5 36.5,90.5C 37.4013,89.7095 38.0679,88.7095 38.5,87.5 Z"/></g>
<g><path style="opacity:1" fill="#b2c8cf" d="M 154.5,83.5 C 154.5,85.8333 154.5,88.1667 154.5,90.5C 154.634,92.2915 154.301,93.9582 153.5,95.5C 153.5,96.1667 153.167,96.5 152.5,96.5C 152.884,91.9898 153.551,87.6565 154.5,83.5 Z"/></g>
<g><path style="opacity:1" fill="#b3cdd6" d="M 154.5,90.5 C 155.167,90.5 155.833,90.5 156.5,90.5C 156.26,95.1201 155.26,99.4535 153.5,103.5C 153.986,100.618 153.986,97.9517 153.5,95.5C 154.301,93.9582 154.634,92.2915 154.5,90.5 Z"/></g>
<g><path style="opacity:1" fill="#afc7cf" d="M 66.5,87.5 C 67.1667,87.5 67.8333,87.5 68.5,87.5C 69.3629,88.9403 69.3629,90.2736 68.5,91.5C 69.8084,92.6256 71.1417,92.6256 72.5,91.5C 73.1667,91.5 73.5,91.1667 73.5,90.5C 75.4123,91.7992 77.4123,92.7992 79.5,93.5C 78.9569,93.56 78.6236,93.8933 78.5,94.5C 81.0865,95.48 83.7531,95.8134 86.5,95.5C 81.0036,97.1784 75.6702,96.5118 70.5,93.5C 69.1482,94.5244 67.8149,95.5244 66.5,96.5C 66.7373,95.209 66.404,94.209 65.5,93.5C 67.1511,91.5979 67.4845,89.5979 66.5,87.5 Z"/></g>
<g><path style="opacity:1" fill="#b0cad4" d="M 138.5,74.5 C 138.833,74.5 139.167,74.5 139.5,74.5C 138.887,80.2709 139.554,85.6042 141.5,90.5C 141.768,92.099 141.434,93.4324 140.5,94.5C 139.525,98.4178 138.525,98.4178 137.5,94.5C 138.331,87.8689 138.664,81.2022 138.5,74.5 Z"/></g>
<g><path style="opacity:1" fill="#b4ccd3" d="M 54.5,89.5 C 55.765,91.7912 57.0983,94.1246 58.5,96.5C 57.2264,97.1894 57.2264,98.0228 58.5,99C 57.9056,99.4643 57.2389,99.631 56.5,99.5C 54.5797,96.6612 52.9131,93.6612 51.5,90.5C 52.4959,90.4142 53.3292,90.7476 54,91.5C 54.4643,90.9056 54.631,90.2389 54.5,89.5 Z"/></g>
<g><path style="opacity:1" fill="#b5d1db" d="M 79.5,93.5 C 80.5,93.5 81.5,93.5 82.5,93.5C 84.4832,93.1568 85.8166,93.8235 86.5,95.5C 83.7531,95.8134 81.0865,95.48 78.5,94.5C 78.6236,93.8933 78.9569,93.56 79.5,93.5 Z"/></g>
<g><path style="opacity:1" fill="#aac3cc" d="M 95.5,91.5 C 96.8333,92.1667 97.8333,93.1667 98.5,94.5C 98.1254,95.7931 97.7921,97.1264 97.5,98.5C 95.7376,97.7377 94.7376,96.4044 94.5,94.5C 95.1098,93.609 95.4431,92.609 95.5,91.5 Z"/></g>
<g><path style="opacity:1" fill="#b6cddb" d="M 65.5,93.5 C 66.404,94.209 66.7373,95.209 66.5,96.5C 66.5,97.1667 66.1667,97.5 65.5,97.5C 64.209,97.7373 63.209,97.404 62.5,96.5C 62.8564,94.8102 63.8564,93.8102 65.5,93.5 Z"/></g>
<g><path style="opacity:1" fill="#b5d3d9" d="M 23.5,90.5 C 24.4345,91.5676 24.7678,92.901 24.5,94.5C 24.5,97.1667 24.5,99.8333 24.5,102.5C 23.2616,100.786 22.595,98.7857 22.5,96.5C 22.3253,94.3792 22.6586,92.3792 23.5,90.5 Z"/></g>
<g><path style="opacity:1" fill="#b1c8d2" d="M 36.5,93.5 C 38.1993,93.5271 39.5326,94.1938 40.5,95.5C 41.4013,96.2905 42.0679,97.2905 42.5,98.5C 41.391,98.5569 40.391,98.8902 39.5,99.5C 38.5139,97.5739 37.5139,95.5739 36.5,93.5 Z"/></g>
<g><path style="opacity:1" fill="#afc7d0" d="M 98.5,94.5 C 100.885,98.4759 103.218,98.4759 105.5,94.5C 105.285,96.1788 105.952,97.1788 107.5,97.5C 106.833,98.8333 105.833,99.8333 104.5,100.5C 102.714,98.0776 101.048,98.0776 99.5,100.5C 98.8333,99.8333 98.1667,99.1667 97.5,98.5C 97.7921,97.1264 98.1254,95.7931 98.5,94.5 Z"/></g>
<g><path style="opacity:1" fill="#adc7d1" d="M 58.5,96.5 C 59.7054,97.6857 61.0387,97.6857 62.5,96.5C 63.209,97.404 64.209,97.7373 65.5,97.5C 64.8333,98.8333 63.8333,99.8333 62.5,100.5C 62.189,99.5222 61.5223,98.8555 60.5,98.5C 59.7348,99.6119 58.7348,100.279 57.5,100.5C 56.8333,100.5 56.5,100.167 56.5,99.5C 57.2389,99.631 57.9056,99.4643 58.5,99C 57.2264,98.0228 57.2264,97.1894 58.5,96.5 Z"/></g>
<g><path style="opacity:1" fill="#b5cbd6" d="M 122.5,92.5 C 123.167,93.5 123.833,94.5 124.5,95.5C 124.396,97.7028 123.73,99.7028 122.5,101.5C 121.599,100.71 120.932,99.7095 120.5,98.5C 120.595,96.2143 121.262,94.2143 122.5,92.5 Z"/></g>
<g><path style="opacity:1" fill="#b2ccd8" d="M 24.5,94.5 C 25.6118,96.5994 26.2785,98.9327 26.5,101.5C 26.573,103.027 25.9063,104.027 24.5,104.5C 24.5,103.833 24.5,103.167 24.5,102.5C 24.5,99.8333 24.5,97.1667 24.5,94.5 Z"/></g>
<g><path style="opacity:1" fill="#b7cdd6" d="M 42.5,98.5 C 43.3994,101.395 44.7328,104.062 46.5,106.5C 44.9256,106.063 43.7589,105.063 43,103.5C 42.5357,104.094 42.369,104.761 42.5,105.5C 40.9925,103.819 39.9925,101.819 39.5,99.5C 40.391,98.8902 41.391,98.5569 42.5,98.5 Z"/></g>
<g><path style="opacity:1" fill="#bad2e0" d="M 104.5,100.5 C 104.833,101.167 105.167,101.833 105.5,102.5C 104.833,102.5 104.167,102.5 103.5,102.5C 102.041,102.567 100.708,102.234 99.5,101.5C 99.5,101.167 99.5,100.833 99.5,100.5C 101.048,98.0776 102.714,98.0776 104.5,100.5 Z"/></g>
<g><path style="opacity:1" fill="#b1c9d0" d="M 137.5,94.5 C 138.525,98.4178 139.525,98.4178 140.5,94.5C 139.975,98.533 138.642,102.2 136.5,105.5C 136.5,104.167 135.833,103.5 134.5,103.5C 135.331,100.341 136.331,97.341 137.5,94.5 Z"/></g>
<g><path style="opacity:1" fill="#b6d3dc" d="M 153.5,95.5 C 153.986,97.9517 153.986,100.618 153.5,103.5C 153.737,104.791 153.404,105.791 152.5,106.5C 151.549,105.081 151.216,103.415 151.5,101.5C 151.629,99.7839 151.962,98.1172 152.5,96.5C 153.167,96.5 153.5,96.1667 153.5,95.5 Z"/></g>
<g><path style="opacity:1" fill="#b0c9d2" d="M 99.5,101.5 C 100.708,102.234 102.041,102.567 103.5,102.5C 103.5,103.167 103.5,103.833 103.5,104.5C 102.883,104.389 102.383,104.056 102,103.5C 98.7873,106.885 94.9539,109.218 90.5,110.5C 90.5,110.167 90.5,109.833 90.5,109.5C 91.3984,108.842 92.3984,108.176 93.5,107.5C 93.3764,106.893 93.0431,106.56 92.5,106.5C 94.9717,105.091 97.305,103.424 99.5,101.5 Z"/></g>
<g><path style="opacity:1" fill="#b0c4cd" d="M 10.5,101.5 C 11.6737,102.514 12.3404,103.847 12.5,105.5C 11.8826,105.389 11.3826,105.056 11,104.5C 10.9378,106.115 10.7711,107.448 10.5,108.5C 9.06873,107.22 8.40206,105.553 8.5,103.5C 9.83333,103.5 10.5,102.833 10.5,101.5 Z"/></g>
<g><path style="opacity:1" fill="#adc7d1" d="M 46.5,106.5 C 47.6049,107.6 48.9382,108.267 50.5,108.5C 50.2172,109.289 49.7172,109.956 49,110.5C 47.9805,109.313 46.8139,108.313 45.5,107.5C 44.8933,107.624 44.56,107.957 44.5,108.5C 43.0937,108.027 42.427,107.027 42.5,105.5C 42.369,104.761 42.5357,104.094 43,103.5C 43.7589,105.063 44.9256,106.063 46.5,106.5 Z"/></g>
<g><path style="opacity:1" fill="#b0c9d3" d="M 57.5,101.5 C 57.5858,102.496 57.2524,103.329 56.5,104C 57.0944,104.464 57.7611,104.631 58.5,104.5C 57.5,106.167 56.1667,107.5 54.5,108.5C 54.1667,107.5 53.5,106.833 52.5,106.5C 53.8333,104.5 55.5,102.833 57.5,101.5 Z"/></g>
<g><path style="opacity:1" fill="#bbd4df" d="M 62.5,100.5 C 62.5,100.833 62.5,101.167 62.5,101.5C 62.1667,102.5 61.5,103.167 60.5,103.5C 59.8333,103.833 59.1667,104.167 58.5,104.5C 57.7611,104.631 57.0944,104.464 56.5,104C 57.2524,103.329 57.5858,102.496 57.5,101.5C 57.5,101.167 57.5,100.833 57.5,100.5C 58.7348,100.279 59.7348,99.6119 60.5,98.5C 61.5223,98.8555 62.189,99.5222 62.5,100.5 Z"/></g>
<g><path style="opacity:1" fill="#b0c8d3" d="M 62.5,101.5 C 63.8717,102.512 65.205,103.512 66.5,104.5C 63.9028,104.721 63.9028,105.221 66.5,106C 65.944,106.383 65.6107,106.883 65.5,107.5C 63.246,106.876 61.5794,105.543 60.5,103.5C 61.5,103.167 62.1667,102.5 62.5,101.5 Z"/></g>
<g><path style="opacity:1" fill="#b2c9d3" d="M 120.5,98.5 C 120.932,99.7095 121.599,100.71 122.5,101.5C 121.154,103.537 119.82,105.537 118.5,107.5C 117.833,106.5 117.167,105.5 116.5,104.5C 117.846,102.463 119.18,100.463 120.5,98.5 Z"/></g>
<g><path style="opacity:1" fill="#b0cad2" d="M 103.5,102.5 C 104.167,102.5 104.833,102.5 105.5,102.5C 108.167,104.5 110.5,106.833 112.5,109.5C 111.5,109.833 110.833,110.5 110.5,111.5C 107.833,109.5 105.5,107.167 103.5,104.5C 103.5,103.833 103.5,103.167 103.5,102.5 Z"/></g>
<g><path style="opacity:1" fill="#b4d1da" d="M 134.5,103.5 C 135.833,103.5 136.5,104.167 136.5,105.5C 136.34,107.153 135.674,108.486 134.5,109.5C 133.89,108.609 133.557,107.609 133.5,106.5C 133.557,105.391 133.89,104.391 134.5,103.5 Z"/></g>
<g><path style="opacity:1" fill="#b2c9d3" d="M 26.5,101.5 C 27.9713,104.552 29.638,107.552 31.5,110.5C 30.391,110.557 29.391,110.89 28.5,111.5C 26.9291,109.365 25.5957,107.032 24.5,104.5C 25.9063,104.027 26.573,103.027 26.5,101.5 Z"/></g>
<g><path style="opacity:1" fill="#b6ccd6" d="M 66.5,104.5 C 69.8358,106.051 73.1691,107.385 76.5,108.5C 75.6236,108.369 74.9569,108.702 74.5,109.5C 79.1196,110.493 83.7863,110.827 88.5,110.5C 80.5368,112.453 72.8701,111.453 65.5,107.5C 65.6107,106.883 65.944,106.383 66.5,106C 63.9028,105.221 63.9028,104.721 66.5,104.5 Z"/></g>
<g><path style="opacity:1" fill="#b4d5dd" d="M 76.5,108.5 C 79.1667,108.5 81.8333,108.5 84.5,108.5C 86.2646,109.461 88.2646,109.795 90.5,109.5C 90.5,109.833 90.5,110.167 90.5,110.5C 89.8333,110.5 89.1667,110.5 88.5,110.5C 83.7863,110.827 79.1196,110.493 74.5,109.5C 74.9569,108.702 75.6236,108.369 76.5,108.5 Z"/></g>
<g><path style="opacity:1" fill="#afcdd5" d="M 92.5,106.5 C 93.0431,106.56 93.3764,106.893 93.5,107.5C 92.3984,108.176 91.3984,108.842 90.5,109.5C 88.2646,109.795 86.2646,109.461 84.5,108.5C 87.0667,107.525 89.7334,106.858 92.5,106.5 Z"/></g>
<g><path style="opacity:1" fill="#b2cdd6" d="M 12.5,105.5 C 14.4974,110.162 16.4974,114.829 18.5,119.5C 18.4431,120.609 18.1098,121.609 17.5,122.5C 14.1319,118.431 11.7986,113.764 10.5,108.5C 10.7711,107.448 10.9378,106.115 11,104.5C 11.3826,105.056 11.8826,105.389 12.5,105.5 Z"/></g>
<g><path style="opacity:1" fill="#b3ced7" d="M 52.5,106.5 C 53.5,106.833 54.1667,107.5 54.5,108.5C 53.8592,109.482 53.1925,110.482 52.5,111.5C 53.1925,112.518 53.8592,113.518 54.5,114.5C 53.1667,114.5 52.5,115.167 52.5,116.5C 51.2502,116.423 50.4169,115.756 50,114.5C 48.3057,115.699 46.8057,117.032 45.5,118.5C 44.6236,118.631 43.9569,118.298 43.5,117.5C 44.1272,116.583 44.4606,115.583 44.5,114.5C 45.1408,113.518 45.8075,112.518 46.5,111.5C 45.8075,110.482 45.1408,109.482 44.5,108.5C 44.56,107.957 44.8933,107.624 45.5,107.5C 46.8139,108.313 47.9805,109.313 49,110.5C 49.7172,109.956 50.2172,109.289 50.5,108.5C 50.8333,107.5 51.5,106.833 52.5,106.5 Z"/></g>
<g><path style="opacity:1" fill="#b5ced9" d="M 116.5,104.5 C 117.167,105.5 117.833,106.5 118.5,107.5C 117.524,108.815 116.524,110.148 115.5,111.5C 115.863,112.183 116.196,112.85 116.5,113.5C 114.523,112.128 112.856,112.462 111.5,114.5C 111.19,116.144 110.19,117.144 108.5,117.5C 108.5,116.167 107.833,115.5 106.5,115.5C 108.139,114.527 109.473,113.194 110.5,111.5C 110.833,110.5 111.5,109.833 112.5,109.5C 114.063,108.055 115.396,106.389 116.5,104.5 Z"/></g>
<g><path style="opacity:1" fill="#b6cfd8" d="M 133.5,106.5 C 133.557,107.609 133.89,108.609 134.5,109.5C 133.038,112.886 131.038,115.886 128.5,118.5C 127.595,117.298 127.595,115.964 128.5,114.5C 130.181,111.797 131.847,109.131 133.5,106.5 Z"/></g>
<g><path style="opacity:1" fill="#b2c9d2" d="M 151.5,101.5 C 151.216,103.415 151.549,105.081 152.5,106.5C 151.958,109.912 150.625,112.912 148.5,115.5C 147.262,115.19 147.262,114.69 148.5,114C 147.906,113.536 147.239,113.369 146.5,113.5C 148.186,109.424 149.853,105.424 151.5,101.5 Z"/></g>
<g><path style="opacity:1" fill="#b6ced6" d="M 31.5,110.5 C 32.6005,111.605 33.2671,112.938 33.5,114.5C 32.596,115.209 32.2627,116.209 32.5,117.5C 30.8079,115.795 29.4746,113.795 28.5,111.5C 29.391,110.89 30.391,110.557 31.5,110.5 Z"/></g>
<g><path style="opacity:1" fill="#b8d2da" d="M 116.5,113.5 C 117.167,113.5 117.5,113.833 117.5,114.5C 118.405,115.964 118.405,117.298 117.5,118.5C 115.754,116.748 113.754,115.415 111.5,114.5C 112.856,112.462 114.523,112.128 116.5,113.5 Z"/></g>
<g><path style="opacity:1" fill="#afc9d1" d="M 33.5,114.5 C 35.2911,116.413 37.2911,118.08 39.5,119.5C 38.6935,120.728 37.6935,121.728 36.5,122.5C 34.9373,121.055 33.604,119.389 32.5,117.5C 32.2627,116.209 32.596,115.209 33.5,114.5 Z"/></g>
<g><path style="opacity:1" fill="#b2cdd7" d="M 54.5,114.5 C 55.8717,115.512 57.205,116.512 58.5,117.5C 58.4431,118.609 58.1098,119.609 57.5,120.5C 55.6115,119.396 53.9448,118.063 52.5,116.5C 52.5,115.167 53.1667,114.5 54.5,114.5 Z"/></g>
<g><path style="opacity:1" fill="#b4d0d7" d="M 146.5,113.5 C 147.239,113.369 147.906,113.536 148.5,114C 147.262,114.69 147.262,115.19 148.5,115.5C 148.25,117.674 147.25,119.341 145.5,120.5C 144.833,120.167 144.167,119.833 143.5,119.5C 144.471,117.517 145.471,115.517 146.5,113.5 Z"/></g>
<g><path style="opacity:1" fill="#b5cdd5" d="M 106.5,115.5 C 107.833,115.5 108.5,116.167 108.5,117.5C 106.795,119.192 104.795,120.525 102.5,121.5C 101.432,120.566 100.099,120.232 98.5,120.5C 101.131,118.847 103.797,117.181 106.5,115.5 Z"/></g>
<g><path style="opacity:1" fill="#adc4cc" d="M 128.5,114.5 C 127.595,115.964 127.595,117.298 128.5,118.5C 128.573,120.027 127.906,121.027 126.5,121.5C 126.631,120.761 126.464,120.094 126,119.5C 124.708,120.791 123.542,120.791 122.5,119.5C 125.115,118.55 127.115,116.883 128.5,114.5 Z"/></g>
<g><path style="opacity:1" fill="#b6cfda" d="M 58.5,117.5 C 62.8697,119.957 67.5364,121.624 72.5,122.5C 70.0521,123.473 67.3854,123.806 64.5,123.5C 62.0462,122.773 59.7128,121.773 57.5,120.5C 58.1098,119.609 58.4431,118.609 58.5,117.5 Z"/></g>
<g><path style="opacity:1" fill="#b8cfd9" d="M 98.5,120.5 C 100.099,120.232 101.432,120.566 102.5,121.5C 100.287,122.773 97.9538,123.773 95.5,124.5C 95.0269,123.094 94.0269,122.427 92.5,122.5C 94.2143,121.262 96.2143,120.595 98.5,120.5 Z"/></g>
<g><path style="opacity:1" fill="#b4d0d8" d="M 117.5,114.5 C 119.5,115.833 121.167,117.5 122.5,119.5C 123.542,120.791 124.708,120.791 126,119.5C 126.464,120.094 126.631,120.761 126.5,121.5C 126.5,121.833 126.5,122.167 126.5,122.5C 123.818,123.901 121.152,125.401 118.5,127C 119.056,127.383 119.389,127.883 119.5,128.5C 117.999,129.752 116.332,130.752 114.5,131.5C 113.5,131.167 112.833,130.5 112.5,129.5C 115.764,127.906 118.431,125.573 120.5,122.5C 119.476,121.148 118.476,119.815 117.5,118.5C 118.405,117.298 118.405,115.964 117.5,114.5 Z"/></g>
<g><path style="opacity:1" fill="#b2cbd5" d="M 143.5,119.5 C 144.167,119.833 144.833,120.167 145.5,120.5C 143.938,124.392 141.605,127.725 138.5,130.5C 137.791,129.596 136.791,129.263 135.5,129.5C 138.178,126.127 140.844,122.794 143.5,119.5 Z"/></g>
<g><path style="opacity:1" fill="#b4ced7" d="M 18.5,119.5 C 20.5475,121.55 22.2141,123.883 23.5,126.5C 23.1583,127.338 22.4916,127.672 21.5,127.5C 19.457,126.421 18.1237,124.754 17.5,122.5C 18.1098,121.609 18.4431,120.609 18.5,119.5 Z"/></g>
<g><path style="opacity:1" fill="#abc5ce" d="M 44.5,114.5 C 44.4606,115.583 44.1272,116.583 43.5,117.5C 43.9569,118.298 44.6236,118.631 45.5,118.5C 44.1667,120.167 42.8333,121.833 41.5,123.5C 41.5,124.167 41.1667,124.5 40.5,124.5C 40.7845,122.585 40.4511,120.919 39.5,119.5C 40.8333,117.5 42.5,115.833 44.5,114.5 Z"/></g>
<g><path style="opacity:1" fill="#b4d2d9" d="M 92.5,122.5 C 94.0269,122.427 95.0269,123.094 95.5,124.5C 95.1667,124.5 94.8333,124.5 94.5,124.5C 91.3493,124.155 88.3493,124.155 85.5,124.5C 86.1667,124.5 86.5,124.167 86.5,123.5C 88.3792,122.659 90.3792,122.325 92.5,122.5 Z"/></g>
<g><path style="opacity:1" fill="#b5ccd4" d="M 72.5,122.5 C 77.1031,123.383 81.7697,123.717 86.5,123.5C 86.5,124.167 86.1667,124.5 85.5,124.5C 84.5,124.5 83.5,124.5 82.5,124.5C 79.3019,123.964 76.6353,124.631 74.5,126.5C 70.8835,126.101 67.5502,125.101 64.5,123.5C 67.3854,123.806 70.0521,123.473 72.5,122.5 Z"/></g>
<g><path style="opacity:1" fill="#b0ceda" d="M 82.5,124.5 C 82.5,125.167 82.5,125.833 82.5,126.5C 80.0428,126.792 77.3761,126.792 74.5,126.5C 76.6353,124.631 79.3019,123.964 82.5,124.5 Z"/></g>
<g><path style="opacity:1" fill="#aac3cb" d="M 126.5,122.5 C 126.833,123.167 127.167,123.833 127.5,124.5C 125.204,124.804 124.871,125.804 126.5,127.5C 125.265,127.279 124.265,126.612 123.5,125.5C 122.148,126.524 120.815,127.524 119.5,128.5C 119.389,127.883 119.056,127.383 118.5,127C 121.152,125.401 123.818,123.901 126.5,122.5 Z"/></g>
<g><path style="opacity:1" fill="#b1cbd2" d="M 94.5,124.5 C 90.6484,126.338 86.6484,127.005 82.5,126.5C 82.5,125.833 82.5,125.167 82.5,124.5C 83.5,124.5 84.5,124.5 85.5,124.5C 88.3493,124.155 91.3493,124.155 94.5,124.5 Z"/></g>
<g><path style="opacity:1" fill="#b4d5db" d="M 39.5,119.5 C 40.4511,120.919 40.7845,122.585 40.5,124.5C 38.0274,124.088 36.6941,125.088 36.5,127.5C 35.1667,127.5 34.5,126.833 34.5,125.5C 35.1667,124.5 35.8333,123.5 36.5,122.5C 37.6935,121.728 38.6935,120.728 39.5,119.5 Z"/></g>
<g><path style="opacity:1" fill="#b1cbd4" d="M 41.5,123.5 C 44.0094,124.921 46.3428,126.588 48.5,128.5C 48.631,129.239 48.4643,129.906 48,130.5C 46.9887,129.663 45.8221,129.33 44.5,129.5C 42.2843,128.797 40.451,127.464 39,125.5C 38.2917,126.381 37.4584,127.047 36.5,127.5C 36.6941,125.088 38.0274,124.088 40.5,124.5C 41.1667,124.5 41.5,124.167 41.5,123.5 Z"/></g>
<g><path style="opacity:1" fill="#b6ccd6" d="M 23.5,126.5 C 24.8333,127.167 25.8333,128.167 26.5,129.5C 25.596,130.209 25.2627,131.209 25.5,132.5C 23.4131,131.415 22.0798,129.749 21.5,127.5C 22.4916,127.672 23.1583,127.338 23.5,126.5 Z"/></g>
<g><path style="opacity:1" fill="#b3cbd4" d="M 34.5,125.5 C 34.5,126.833 35.1667,127.5 36.5,127.5C 34.8437,129.46 33.177,131.46 31.5,133.5C 31.1667,133.5 30.8333,133.5 30.5,133.5C 29.9924,131.767 29.159,131.434 28,132.5C 26.9614,131.756 26.4614,130.756 26.5,129.5C 27.1499,129.804 27.8165,130.137 28.5,130.5C 30.5193,128.81 32.5193,127.144 34.5,125.5 Z"/></g>
<g><path style="opacity:1" fill="#b2cad4" d="M 127.5,124.5 C 128.974,125.436 129.974,126.77 130.5,128.5C 131.63,130.315 132.296,132.315 132.5,134.5C 132.5,135.167 132.5,135.833 132.5,136.5C 131.167,138.5 129.5,140.167 127.5,141.5C 126.833,140.833 126.167,140.167 125.5,139.5C 127.004,137.164 129.004,135.331 131.5,134C 129.946,131.713 128.279,129.546 126.5,127.5C 124.871,125.804 125.204,124.804 127.5,124.5 Z"/></g>
<g><path style="opacity:1" fill="#b2cad4" d="M 48.5,128.5 C 52.8832,131.358 57.5499,133.692 62.5,135.5C 61.1667,136.167 59.8333,136.833 58.5,137.5C 53.1734,135.841 48.5067,133.174 44.5,129.5C 45.8221,129.33 46.9887,129.663 48,130.5C 48.4643,129.906 48.631,129.239 48.5,128.5 Z"/></g>
<g><path style="opacity:1" fill="#b1ced8" d="M 130.5,128.5 C 131.82,129.942 133.486,130.608 135.5,130.5C 135.446,132.632 134.446,133.965 132.5,134.5C 132.296,132.315 131.63,130.315 130.5,128.5 Z"/></g>
<g><path style="opacity:1" fill="#b2c9d1" d="M 112.5,129.5 C 112.833,130.5 113.5,131.167 114.5,131.5C 113.564,132.974 112.23,133.974 110.5,134.5C 110.027,133.094 109.027,132.427 107.5,132.5C 108.965,131.263 110.632,130.263 112.5,129.5 Z"/></g>
<g><path style="opacity:1" fill="#bad1db" d="M 135.5,129.5 C 136.791,129.263 137.791,129.596 138.5,130.5C 137.859,131.482 137.193,132.482 136.5,133.5C 137.193,134.518 137.859,135.518 138.5,136.5C 137.167,136.5 135.833,136.5 134.5,136.5C 133.833,136.5 133.167,136.5 132.5,136.5C 132.5,135.833 132.5,135.167 132.5,134.5C 134.446,133.965 135.446,132.632 135.5,130.5C 135.5,130.167 135.5,129.833 135.5,129.5 Z"/></g>
<g><path style="opacity:1" fill="#b5d4dc" d="M 26.5,129.5 C 26.4614,130.756 26.9614,131.756 28,132.5C 29.159,131.434 29.9924,131.767 30.5,133.5C 29.3226,135.784 27.6559,136.118 25.5,134.5C 25.5,133.833 25.5,133.167 25.5,132.5C 25.2627,131.209 25.596,130.209 26.5,129.5 Z"/></g>
<g><path style="opacity:1" fill="#b1cdd6" d="M 107.5,132.5 C 109.027,132.427 110.027,133.094 110.5,134.5C 107.873,136.601 104.873,137.934 101.5,138.5C 100.71,137.599 99.7095,136.932 98.5,136.5C 101.318,134.928 104.318,133.594 107.5,132.5 Z"/></g>
<g><path style="opacity:1" fill="#b6d0d8" d="M 32.5,135.5 C 35.0599,137.273 37.3932,139.273 39.5,141.5C 38.391,141.557 37.391,141.89 36.5,142.5C 34.8089,141.136 33.1423,139.803 31.5,138.5C 31.5858,137.504 31.2524,136.671 30.5,136C 31.0944,135.536 31.7611,135.369 32.5,135.5 Z"/></g>
<g><path style="opacity:1" fill="#abc6d1" d="M 62.5,135.5 C 63.1667,135.5 63.5,135.833 63.5,136.5C 64.8333,137.5 64.8333,138.5 63.5,139.5C 61.597,139.204 59.9303,138.537 58.5,137.5C 59.8333,136.833 61.1667,136.167 62.5,135.5 Z"/></g>
<g><path style="opacity:1" fill="#b1cdd5" d="M 134.5,136.5 C 135.833,136.5 137.167,136.5 138.5,136.5C 140.5,137.833 142.167,139.5 143.5,141.5C 143.5,142.833 142.833,143.5 141.5,143.5C 138.939,141.36 136.605,139.027 134.5,136.5 Z"/></g>
<g><path style="opacity:1" fill="#b2c9d3" d="M 30.5,133.5 C 30.8333,133.5 31.1667,133.5 31.5,133.5C 31.8333,134.167 32.1667,134.833 32.5,135.5C 31.7611,135.369 31.0944,135.536 30.5,136C 31.2524,136.671 31.5858,137.504 31.5,138.5C 30.5178,137.859 29.5178,137.193 28.5,136.5C 26.8144,137.857 25.1477,139.19 23.5,140.5C 23.1667,139.5 22.5,138.833 21.5,138.5C 22.5,136.833 23.8333,135.5 25.5,134.5C 27.6559,136.118 29.3226,135.784 30.5,133.5 Z"/></g>
<g><path style="opacity:1" fill="#b1c9d2" d="M 98.5,136.5 C 99.7095,136.932 100.71,137.599 101.5,138.5C 93.5809,141.396 85.5809,142.396 77.5,141.5C 80.5176,141.296 83.5176,140.963 86.5,140.5C 88.9267,140.477 91.26,139.977 93.5,139C 92.552,138.517 91.552,138.351 90.5,138.5C 92.9052,137.232 95.5718,136.565 98.5,136.5 Z"/></g>
<g><path style="opacity:1" fill="#b4ccd8" d="M 63.5,136.5 C 69.7326,138.006 76.066,138.673 82.5,138.5C 82.5,138.833 82.5,139.167 82.5,139.5C 79.1501,139.335 75.8168,139.502 72.5,140C 73.4158,140.278 74.0825,140.778 74.5,141.5C 70.7379,141.309 67.0712,140.642 63.5,139.5C 64.8333,138.5 64.8333,137.5 63.5,136.5 Z"/></g>
<g><path style="opacity:1" fill="#afd0db" d="M 82.5,139.5 C 82.5,139.167 82.5,138.833 82.5,138.5C 85.1667,138.5 87.8333,138.5 90.5,138.5C 91.552,138.351 92.552,138.517 93.5,139C 91.26,139.977 88.9267,140.477 86.5,140.5C 85.4324,139.566 84.099,139.232 82.5,139.5 Z"/></g>
<g><path style="opacity:1" fill="#b4ccd6" d="M 21.5,138.5 C 22.5,138.833 23.1667,139.5 23.5,140.5C 22.8333,141.833 21.8333,142.833 20.5,143.5C 20.1667,142.5 19.5,141.833 18.5,141.5C 19.1667,140.167 20.1667,139.167 21.5,138.5 Z"/></g>
<g><path style="opacity:1" fill="#b5d4dd" d="M 82.5,139.5 C 84.099,139.232 85.4324,139.566 86.5,140.5C 83.5176,140.963 80.5176,141.296 77.5,141.5C 76.5,141.5 75.5,141.5 74.5,141.5C 74.0825,140.778 73.4158,140.278 72.5,140C 75.8168,139.502 79.1501,139.335 82.5,139.5 Z"/></g>
<g><path style="opacity:1" fill="#b5cfd7" d="M 125.5,139.5 C 126.167,140.167 126.833,140.833 127.5,141.5C 124.833,143.167 122.167,144.833 119.5,146.5C 118.957,146.44 118.624,146.107 118.5,145.5C 119.665,144.416 120.998,143.583 122.5,143C 121.944,142.617 121.611,142.117 121.5,141.5C 122.605,140.4 123.938,139.733 125.5,139.5 Z"/></g>
<g><path style="opacity:1" fill="#b1cdd5" d="M 39.5,141.5 C 42.669,142.917 45.669,144.583 48.5,146.5C 47.7611,146.369 47.0944,146.536 46.5,147C 47.2524,147.671 47.5858,148.504 47.5,149.5C 43.543,147.527 39.8763,145.194 36.5,142.5C 37.391,141.89 38.391,141.557 39.5,141.5 Z"/></g>
<g><path style="opacity:1" fill="#b3cbd4" d="M 143.5,141.5 C 145.833,143.167 147.833,145.167 149.5,147.5C 149.5,148.833 148.833,149.5 147.5,149.5C 145.167,147.833 143.167,145.833 141.5,143.5C 142.833,143.5 143.5,142.833 143.5,141.5 Z"/></g>
<g><path style="opacity:1" fill="#b4ccd6" d="M 18.5,141.5 C 19.5,141.833 20.1667,142.5 20.5,143.5C 18.8333,145.833 16.8333,147.833 14.5,149.5C 13.2905,149.068 12.2905,148.401 11.5,147.5C 13.8333,145.5 16.1667,143.5 18.5,141.5 Z"/></g>
<g><path style="opacity:1" fill="#b0c8d0" d="M 121.5,141.5 C 121.611,142.117 121.944,142.617 122.5,143C 120.998,143.583 119.665,144.416 118.5,145.5C 118.624,146.107 118.957,146.44 119.5,146.5C 117.151,148.341 114.485,149.674 111.5,150.5C 110.833,149.833 110.167,149.167 109.5,148.5C 113.465,146.182 117.465,143.848 121.5,141.5 Z"/></g>
<g><path style="opacity:1" fill="#aec8d1" d="M 152.5,146.5 C 155.01,146.054 157.01,146.72 158.5,148.5C 155.075,148.367 154.742,149.033 157.5,150.5C 156.167,150.5 154.833,150.5 153.5,150.5C 153.167,149.167 152.833,147.833 152.5,146.5 Z"/></g>
<g><path style="opacity:1" fill="#adc9d1" d="M 10.5,147.5 C 5.93628,148.184 5.60295,149.184 9.5,150.5C 7.14166,150.253 5.14166,150.919 3.5,152.5C 3.16667,151.5 2.5,150.833 1.5,150.5C 3.76238,146.859 6.76238,145.859 10.5,147.5 Z"/></g>
<g><path style="opacity:1" fill="#b5d2dc" d="M 10.5,147.5 C 10.8333,147.5 11.1667,147.5 11.5,147.5C 12.2905,148.401 13.2905,149.068 14.5,149.5C 14.5,150.167 14.5,150.833 14.5,151.5C 13.5,151.5 12.5,151.5 11.5,151.5C 10.8333,151.167 10.1667,150.833 9.5,150.5C 5.60295,149.184 5.93628,148.184 10.5,147.5 Z"/></g>
<g><path style="opacity:1" fill="#b2ccd7" d="M 48.5,146.5 C 52.9983,147.995 57.3316,149.662 61.5,151.5C 61.0618,151.435 60.7284,151.601 60.5,152C 61.4158,152.278 62.0825,152.778 62.5,153.5C 61.5084,153.328 60.8417,153.662 60.5,154.5C 56.0259,153.092 51.6926,151.425 47.5,149.5C 47.5858,148.504 47.2524,147.671 46.5,147C 47.0944,146.536 47.7611,146.369 48.5,146.5 Z"/></g>
<g><path style="opacity:1" fill="#b2cbd5" d="M 109.5,148.5 C 110.167,149.167 110.833,149.833 111.5,150.5C 110.22,151.931 108.553,152.598 106.5,152.5C 105.833,151.833 105.167,151.167 104.5,150.5C 105.93,149.463 107.597,148.796 109.5,148.5 Z"/></g>
<g><path style="opacity:1" fill="#b3ccd5" d="M 152.5,146.5 C 152.833,147.833 153.167,149.167 153.5,150.5C 152.504,150.414 151.671,150.748 151,151.5C 150.322,153.598 150.489,155.598 151.5,157.5C 151.167,158.5 150.5,159.167 149.5,159.5C 146.417,156.752 145.75,153.418 147.5,149.5C 148.833,149.5 149.5,148.833 149.5,147.5C 150.609,147.443 151.609,147.11 152.5,146.5 Z"/></g>
<g><path style="opacity:1" fill="#b4ccd6" d="M 158.5,148.5 C 161.309,150.298 162.309,152.632 161.5,155.5C 160.167,156.167 158.833,156.833 157.5,157.5C 158.833,155.167 158.833,152.833 157.5,150.5C 154.742,149.033 155.075,148.367 158.5,148.5 Z"/></g>
<g><path style="opacity:1" fill="#b4ccd5" d="M 11.5,151.5 C 12.5,151.5 13.5,151.5 14.5,151.5C 16.6602,157.167 14.6602,160.5 8.5,161.5C 8.08247,160.778 7.4158,160.278 6.5,160C 7.78387,159.316 8.95054,159.483 10,160.5C 10.4828,159.552 10.6495,158.552 10.5,157.5C 11.1408,156.518 11.8075,155.518 12.5,154.5C 11.8728,153.583 11.5394,152.583 11.5,151.5 Z"/></g>
<g><path style="opacity:1" fill="#b6ced6" d="M 61.5,151.5 C 64.8647,152.04 68.198,152.706 71.5,153.5C 68.6727,154.368 65.6727,154.368 62.5,153.5C 62.0825,152.778 61.4158,152.278 60.5,152C 60.7284,151.601 61.0618,151.435 61.5,151.5 Z"/></g>
<g><path style="opacity:1" fill="#b0ccd4" d="M 104.5,150.5 C 105.167,151.167 105.833,151.833 106.5,152.5C 102.112,154.434 97.4449,155.767 92.5,156.5C 93.1157,155.202 93.1157,154.202 92.5,153.5C 96.313,152.213 100.313,151.213 104.5,150.5 Z"/></g>
<g><path style="opacity:1" fill="#b1ccd2" d="M 60.5,154.5 C 60.8417,153.662 61.5084,153.328 62.5,153.5C 65.6727,154.368 68.6727,154.368 71.5,153.5C 78.5,153.5 85.5,153.5 92.5,153.5C 93.1157,154.202 93.1157,155.202 92.5,156.5C 91.8333,156.5 91.1667,156.5 90.5,156.5C 88.2568,155.188 85.5902,154.522 82.5,154.5C 79.4098,154.522 76.7432,155.188 74.5,156.5C 69.7001,156.65 65.0334,155.984 60.5,154.5 Z"/></g>
<g><path style="opacity:1" fill="#b3cbd7" d="M 90.5,156.5 C 85.0227,157.702 79.6894,157.702 74.5,156.5C 76.7432,155.188 79.4098,154.522 82.5,154.5C 85.5902,154.522 88.2568,155.188 90.5,156.5 Z"/></g>
<g><path style="opacity:1" fill="#bbd5e1" d="M 1.5,150.5 C 2.5,150.833 3.16667,151.5 3.5,152.5C 3.5,153.5 3.5,154.5 3.5,155.5C 3.57298,157.027 2.90632,158.027 1.5,158.5C 0.166667,155.833 0.166667,153.167 1.5,150.5 Z"/></g>
<g><path style="opacity:1" fill="#abc5ce" d="M 3.5,155.5 C 5.28326,158.207 7.61659,158.873 10.5,157.5C 10.6495,158.552 10.4828,159.552 10,160.5C 8.95054,159.483 7.78387,159.316 6.5,160C 7.4158,160.278 8.08247,160.778 8.5,161.5C 8.44001,162.043 8.10667,162.376 7.5,162.5C 5.08936,161.639 3.08936,160.306 1.5,158.5C 2.90632,158.027 3.57298,157.027 3.5,155.5 Z"/></g>
<g><path style="opacity:1" fill="#b4c8d4" d="M 161.5,155.5 C 161.167,159.167 159.167,161.167 155.5,161.5C 155.5,160.5 155.5,159.5 155.5,158.5C 155.842,157.662 156.508,157.328 157.5,157.5C 158.833,156.833 160.167,156.167 161.5,155.5 Z"/></g>
<g><path style="opacity:1" fill="#b0c7d1" d="M 151.5,157.5 C 152.708,158.234 154.041,158.567 155.5,158.5C 155.5,159.5 155.5,160.5 155.5,161.5C 155.44,162.043 155.107,162.376 154.5,162.5C 152.402,162.043 150.736,161.043 149.5,159.5C 150.5,159.167 151.167,158.5 151.5,157.5 Z"/></g>
</svg>
