<?xml version="1.0" encoding="UTF-8"?>
<!DOCTYPE svg PUBLIC "-//W3C//DTD SVG 1.1//EN" "http://www.w3.org/Graphics/SVG/1.1/DTD/svg11.dtd">
<svg xmlns="http://www.w3.org/2000/svg" version="1.1" width="142px" height="147px" style="shape-rendering:geometricPrecision; text-rendering:geometricPrecision; image-rendering:optimizeQuality; fill-rule:evenodd; clip-rule:evenodd" xmlns:xlink="http://www.w3.org/1999/xlink">
<g><path style="opacity:1" fill="#fbfbfb" d="M -0.5,-0.5 C 46.8333,-0.5 94.1667,-0.5 141.5,-0.5C 141.5,48.5 141.5,97.5 141.5,146.5C 94.1667,146.5 46.8333,146.5 -0.5,146.5C -0.5,97.5 -0.5,48.5 -0.5,-0.5 Z"/></g>
<g><path style="opacity:1" fill="#010101" d="M 90.5,14.5 C 91.8221,14.33 92.9887,14.6634 94,15.5C 95.2606,25.1983 93.9273,34.5316 90,43.5C 89.4387,44.0219 88.772,44.3552 88,44.5C 81.6701,42.3634 75.1701,41.03 68.5,40.5C 65.4685,31.4839 60.4685,23.8173 53.5,17.5C 58.0475,15.497 62.8808,14.1637 68,13.5C 75.4807,14.2832 82.9807,14.6165 90.5,14.5 Z"/></g>
<g><path style="opacity:1" fill="#252525" d="M 90.5,14.5 C 82.9807,14.6165 75.4807,14.2832 68,13.5C 62.8808,14.1637 58.0475,15.497 53.5,17.5C 52.475,17.1034 52.3083,16.4368 53,15.5C 65.4911,10.6892 77.9911,10.3559 90.5,14.5 Z"/></g>
<g><path style="opacity:1" fill="#020202" d="M 14.5,62.5 C 14.748,58.0938 15.4147,53.7604 16.5,49.5C 19.9641,40.2524 25.6308,32.5857 33.5,26.5C 42.7068,30.7097 50.0401,37.043 55.5,45.5C 50.5749,49.9282 46.5749,55.0948 43.5,61C 33.7678,59.948 24.1012,60.448 14.5,62.5 Z"/></g>
<g><path style="opacity:1" fill="#020202" d="M 112.5,27.5 C 117.683,29.8399 121.85,33.5065 125,38.5C 129.815,45.4659 132.981,53.1325 134.5,61.5C 134.392,62.4419 134.059,63.2753 133.5,64C 124.908,69.3647 115.575,72.198 105.5,72.5C 105.605,65.6481 103.605,59.4814 99.5,54C 106.354,46.457 110.688,37.6237 112.5,27.5 Z"/></g>
<g><path style="opacity:1" fill="#000000" d="M 66.5,47.5 C 86.495,45.3368 97.8284,54.1701 100.5,74C 98.9125,90.4211 89.9125,99.2544 73.5,100.5C 54.7932,98.6255 45.9599,88.2922 47,69.5C 49.507,58.4999 56.007,51.1666 66.5,47.5 Z"/></g>
<g><path style="opacity:1" fill="#464646" d="M 16.5,49.5 C 15.4147,53.7604 14.748,58.0938 14.5,62.5C 13.5028,62.5299 12.8361,62.0299 12.5,61C 13.3679,56.8916 14.7013,53.0582 16.5,49.5 Z"/></g>
<g><path style="opacity:1" fill="#030303" d="M 32.5,75.5 C 35.5,75.5 38.5,75.5 41.5,75.5C 41.3951,82.3519 43.3951,88.5186 47.5,94C 40.6402,101.554 36.3069,110.387 34.5,120.5C 29.3168,118.16 25.1501,114.493 22,109.5C 17.5683,102.376 14.4016,94.7089 12.5,86.5C 13.0541,84.3717 14.3874,82.8717 16.5,82C 21.7441,79.315 27.0775,77.1484 32.5,75.5 Z"/></g>
<g><path style="opacity:1" fill="#030303" d="M 132.5,84.5 C 133.586,84.62 134.253,85.2867 134.5,86.5C 131.318,100.033 124.651,111.533 114.5,121C 110.123,120.005 106.123,118.005 102.5,115C 99.3333,111.833 96.1667,108.667 93,105.5C 91.8129,103.956 91.4795,102.289 92,100.5C 96.8799,96.9171 100.713,92.4171 103.5,87C 110.47,87.4546 117.47,87.4546 124.5,87C 127.379,86.454 130.046,85.6206 132.5,84.5 Z"/></g>
<g><path style="opacity:1" fill="#040404" d="M 57.5,103.5 C 64.3276,105.548 71.3276,106.882 78.5,107.5C 81.4827,116.647 86.6493,124.314 94,130.5C 94.6667,131.167 94.6667,131.833 94,132.5C 80.5974,137.59 67.0974,137.756 53.5,133C 51.6455,122.764 52.9789,112.93 57.5,103.5 Z"/></g>
</svg>
