<?xml version="1.0" encoding="UTF-8"?>
<!DOCTYPE svg PUBLIC "-//W3C//DTD SVG 1.1//EN" "http://www.w3.org/Graphics/SVG/1.1/DTD/svg11.dtd">
<svg xmlns="http://www.w3.org/2000/svg" version="1.1" width="134px" height="139px" style="shape-rendering:geometricPrecision; text-rendering:geometricPrecision; image-rendering:optimizeQuality; fill-rule:evenodd; clip-rule:evenodd" xmlns:xlink="http://www.w3.org/1999/xlink">
<g><path style="opacity:0.773" fill="#878787" d="M 61.5,11.5 C 69.9936,10.4437 78.4936,10.4437 87,11.5C 87.7172,12.0442 88.2172,12.7109 88.5,13.5C 84.1578,13.2605 79.8244,12.9272 75.5,12.5C 71.03,11.5139 66.3633,11.1805 61.5,11.5 Z"/></g>
<g><path style="opacity:1" fill="#080808" d="M 75.5,12.5 C 79.8244,12.9272 84.1578,13.2605 88.5,13.5C 89.1933,17.5655 89.8599,21.7321 90.5,26C 89.944,26.3826 89.6107,26.8826 89.5,27.5C 88.5933,29.6568 87.9267,31.9902 87.5,34.5C 87.405,36.7857 86.7384,38.7857 85.5,40.5C 82.612,41.0779 79.612,41.0779 76.5,40.5C 76.1667,40.5 75.8333,40.5 75.5,40.5C 75.3893,39.8826 75.056,39.3826 74.5,39C 71.1832,38.5017 67.8499,38.335 64.5,38.5C 64.8432,36.5168 64.1765,35.1834 62.5,34.5C 62.3404,32.847 61.6737,31.5137 60.5,30.5C 60.1667,29.8333 59.8333,29.1667 59.5,28.5C 59.4456,26.368 58.4456,25.0347 56.5,24.5C 56.1667,23.8333 55.8333,23.1667 55.5,22.5C 54.9202,20.2512 53.5869,18.5846 51.5,17.5C 50.4019,16.603 50.4019,15.7697 51.5,15C 59.3616,12.909 67.3616,12.0756 75.5,12.5 Z"/></g>
<g><path style="opacity:0.464" fill="#f9f9f9" d="M 50.5,13.5 C 49.8902,14.391 49.5569,15.391 49.5,16.5C 48.1148,15.0527 48.4482,14.0527 50.5,13.5 Z"/></g>
<g><path style="opacity:1" fill="#515151" d="M 61.5,11.5 C 66.3633,11.1805 71.03,11.5139 75.5,12.5C 67.3616,12.0756 59.3616,12.909 51.5,15C 50.4019,15.7697 50.4019,16.603 51.5,17.5C 51.1667,17.5 50.8333,17.5 50.5,17.5C 49.8333,17.5 49.5,17.1667 49.5,16.5C 49.5569,15.391 49.8902,14.391 50.5,13.5C 53.4692,12.2024 56.4692,11.2024 59.5,10.5C 60.1835,10.8627 60.8501,11.1961 61.5,11.5 Z"/></g>
<g><path style="opacity:0.647" fill="#bebebe" d="M 50.5,17.5 C 50.8333,17.5 51.1667,17.5 51.5,17.5C 53.5869,18.5846 54.9202,20.2512 55.5,22.5C 53.4514,21.1182 51.7847,19.4516 50.5,17.5 Z"/></g>
<g><path style="opacity:1" fill="#d2d2d2" d="M 56.5,24.5 C 58.4456,25.0347 59.4456,26.368 59.5,28.5C 57.7376,27.7377 56.7376,26.4044 56.5,24.5 Z"/></g>
<g><path style="opacity:0.922" fill="#969696" d="M 34.5,26.5 C 32.8008,26.3398 31.1341,26.5065 29.5,27C 27.2721,29.2993 24.9388,31.4659 22.5,33.5C 24.1226,29.2106 27.1226,26.2106 31.5,24.5C 32.7387,24.9424 33.7387,25.6091 34.5,26.5 Z"/></g>
<g><path style="opacity:1" fill="#050505" d="M 34.5,26.5 C 37.2948,27.063 39.6282,28.3963 41.5,30.5C 44.5,34.1667 47.8333,37.5 51.5,40.5C 51.8333,41.8333 52.1667,43.1667 52.5,44.5C 48.8333,46.1667 46.1667,48.8333 44.5,52.5C 43.0351,53.4057 42.0351,54.739 41.5,56.5C 39.9547,57.4519 38.288,57.7852 36.5,57.5C 28.9008,56.118 21.2342,56.4513 13.5,58.5C 13.6159,55.1401 13.9492,51.8067 14.5,48.5C 14.9348,45.8427 15.9348,43.5093 17.5,41.5C 18.9063,41.0269 19.573,40.0269 19.5,38.5C 20.075,36.5887 21.075,34.922 22.5,33.5C 24.9388,31.4659 27.2721,29.2993 29.5,27C 31.1341,26.5065 32.8008,26.3398 34.5,26.5 Z"/></g>
<g><path style="opacity:1" fill="#080808" d="M 118.5,36.5 C 119.338,36.8417 119.672,37.5084 119.5,38.5C 121.359,43.8956 123.526,49.2289 126,54.5C 126.495,56.4727 126.662,58.4727 126.5,60.5C 120.214,63.4821 113.881,66.1488 107.5,68.5C 104.932,69.4496 102.432,69.4496 100,68.5C 98.7926,63.712 97.2926,59.0453 95.5,54.5C 95.3225,53.3052 94.9891,52.1385 94.5,51C 95.741,49.2691 96.741,47.4358 97.5,45.5C 98.9063,45.0269 99.573,44.0269 99.5,42.5C 99.3284,41.5084 99.6618,40.8417 100.5,40.5C 102.625,37.9122 103.958,34.9122 104.5,31.5C 105.339,30.3588 106.006,29.0255 106.5,27.5C 107.365,26.4173 108.365,26.2506 109.5,27C 112.732,30.0623 115.732,33.229 118.5,36.5 Z"/></g>
<g><path style="opacity:0.243" fill="#b3b3b3" d="M 41.5,30.5 C 45.8333,32.8333 49.1667,36.1667 51.5,40.5C 47.8333,37.5 44.5,34.1667 41.5,30.5 Z"/></g>
<g><path style="opacity:0.137" fill="#e9e9e9" d="M 60.5,30.5 C 61.6737,31.5137 62.3404,32.847 62.5,34.5C 60.8958,33.713 60.2291,32.3797 60.5,30.5 Z"/></g>
<g><path style="opacity:0.067" fill="#ddddde" d="M 89.5,27.5 C 89.6621,29.5273 89.4955,31.5273 89,33.5C 88.6174,34.056 88.1174,34.3893 87.5,34.5C 87.9267,31.9902 88.5933,29.6568 89.5,27.5 Z"/></g>
<g><path style="opacity:0.162" fill="#dedfdf" d="M 118.5,36.5 C 115.732,33.229 112.732,30.0623 109.5,27C 108.365,26.2506 107.365,26.4173 106.5,27.5C 106.006,29.0255 105.339,30.3588 104.5,31.5C 104.618,28.3117 105.451,25.3117 107,22.5C 107.93,24.5524 109.43,26.0524 111.5,27C 112.449,27.6172 113.282,27.4506 114,26.5C 115.323,29.9654 116.823,33.2988 118.5,36.5 Z"/></g>
<g><path style="opacity:0.02" fill="#e0e0e0" d="M 104.5,31.5 C 103.958,34.9122 102.625,37.9122 100.5,40.5C 101.042,37.0878 102.375,34.0878 104.5,31.5 Z"/></g>
<g><path style="opacity:0.725" fill="#616161" d="M 62.5,34.5 C 64.1765,35.1834 64.8432,36.5168 64.5,38.5C 67.8499,38.335 71.1832,38.5017 74.5,39C 75.056,39.3826 75.3893,39.8826 75.5,40.5C 72.2374,39.8619 69.0707,39.8619 66,40.5C 63.8123,39.1113 62.6456,37.1113 62.5,34.5 Z"/></g>
<g><path style="opacity:0.188" fill="#888888" d="M 19.5,38.5 C 19.573,40.0269 18.9063,41.0269 17.5,41.5C 17.427,39.9731 18.0937,38.9731 19.5,38.5 Z"/></g>
<g><path style="opacity:0.659" fill="#8e8e8e" d="M 76.5,40.5 C 79.612,41.0779 82.612,41.0779 85.5,40.5C 85.5852,41.9953 84.9185,42.9953 83.5,43.5C 80.9836,42.6701 78.6502,41.6701 76.5,40.5 Z"/></g>
<g><path style="opacity:1" fill="#828282" d="M 119.5,38.5 C 123.635,44.5384 126.635,51.2051 128.5,58.5C 128.145,59.5223 127.478,60.189 126.5,60.5C 126.662,58.4727 126.495,56.4727 126,54.5C 123.526,49.2289 121.359,43.8956 119.5,38.5 Z"/></g>
<g><path style="opacity:0.247" fill="#afafaf" d="M 51.5,40.5 C 53.5195,41.5383 53.8528,42.8716 52.5,44.5C 52.1667,43.1667 51.8333,41.8333 51.5,40.5 Z"/></g>
<g><path style="opacity:0.659" fill="#8b8b8b" d="M 99.5,42.5 C 99.573,44.0269 98.9063,45.0269 97.5,45.5C 97.427,43.9731 98.0937,42.9731 99.5,42.5 Z"/></g>
<g><path style="opacity:0.82" fill="#747474" d="M 80.5,46.5 C 72.3869,44.8861 64.3869,45.2194 56.5,47.5C 57.347,46.0337 58.6803,45.2004 60.5,45C 67.5198,42.6716 74.1865,43.1716 80.5,46.5 Z"/></g>
<g><path style="opacity:1" fill="#040404" d="M 80.5,46.5 C 83.117,47.7859 85.4504,49.4525 87.5,51.5C 88.1667,52.8333 89.1667,53.8333 90.5,54.5C 90.427,56.0269 91.0937,57.0269 92.5,57.5C 94.7007,64.4638 94.8674,71.4638 93,78.5C 91.5186,81.11 90.3519,83.7766 89.5,86.5C 86.2927,90.3771 82.2927,93.0438 77.5,94.5C 70.3781,94.8253 63.3781,94.1586 56.5,92.5C 56.0269,91.0937 55.0269,90.427 53.5,90.5C 52.8333,89.1667 51.8333,88.1667 50.5,87.5C 49.5,87.1667 48.8333,86.5 48.5,85.5C 48.573,83.9731 47.9063,82.9731 46.5,82.5C 46.8799,80.302 46.2132,78.6354 44.5,77.5C 44.1286,70.6811 44.7952,64.0144 46.5,57.5C 47.9063,57.0269 48.573,56.0269 48.5,54.5C 50.8333,52.8333 52.8333,50.8333 54.5,48.5C 54.8417,47.6618 55.5084,47.3284 56.5,47.5C 64.3869,45.2194 72.3869,44.8861 80.5,46.5 Z"/></g>
<g><path style="opacity:0.039" fill="#b6b6b6" d="M 52.5,44.5 C 50.1667,47.5 47.5,50.1667 44.5,52.5C 46.1667,48.8333 48.8333,46.1667 52.5,44.5 Z"/></g>
<g><path style="opacity:0.698" fill="#808080" d="M 97.5,45.5 C 96.741,47.4358 95.741,49.2691 94.5,51C 94.9891,52.1385 95.3225,53.3052 95.5,54.5C 94.0351,53.5943 93.0351,52.261 92.5,50.5C 93.8545,48.4788 95.5212,46.8121 97.5,45.5 Z"/></g>
<g><path style="opacity:0.337" fill="#b9b9b9" d="M 54.5,48.5 C 52.8333,50.8333 50.8333,52.8333 48.5,54.5C 49.5,51.5 51.5,49.5 54.5,48.5 Z"/></g>
<g><path style="opacity:0.004" fill="#e0e0e0" d="M 87.5,51.5 C 89.5,51.5 90.5,52.5 90.5,54.5C 89.1667,53.8333 88.1667,52.8333 87.5,51.5 Z"/></g>
<g><path style="opacity:0.333" fill="#a7a7a7" d="M 48.5,54.5 C 48.573,56.0269 47.9063,57.0269 46.5,57.5C 46.427,55.9731 47.0937,54.9731 48.5,54.5 Z"/></g>
<g><path style="opacity:0.208" fill="#cdcdcd" d="M 90.5,54.5 C 91.9063,54.9731 92.573,55.9731 92.5,57.5C 91.0937,57.0269 90.427,56.0269 90.5,54.5 Z"/></g>
<g><path style="opacity:0.643" fill="#9b9b9b" d="M 44.5,52.5 C 43.2652,59.7182 39.5985,61.3849 33.5,57.5C 34.5,57.5 35.5,57.5 36.5,57.5C 38.288,57.7852 39.9547,57.4519 41.5,56.5C 42.0351,54.739 43.0351,53.4057 44.5,52.5 Z"/></g>
<g><path style="opacity:0.718" fill="#727272" d="M 14.5,48.5 C 13.9492,51.8067 13.6159,55.1401 13.5,58.5C 21.2342,56.4513 28.9008,56.118 36.5,57.5C 35.5,57.5 34.5,57.5 33.5,57.5C 26.0339,57.6337 18.7005,58.6337 11.5,60.5C 11.0339,56.0184 12.0339,52.0184 14.5,48.5 Z"/></g>
<g><path style="opacity:0.847" fill="#757575" d="M 46.5,57.5 C 44.7952,64.0144 44.1286,70.6811 44.5,77.5C 42.068,70.695 42.7346,64.0283 46.5,57.5 Z"/></g>
<g><path style="opacity:0.063" fill="#c4c4c4" d="M 126.5,60.5 C 121.028,65.0654 114.695,67.7321 107.5,68.5C 113.881,66.1488 120.214,63.4821 126.5,60.5 Z"/></g>
<g><path style="opacity:0.282" fill="#afb0b0" d="M 42.5,84.5 C 39.9217,80.6629 38.5884,76.3296 38.5,71.5C 34.4183,71.3436 30.4183,71.8436 26.5,73C 22.1453,74.8458 17.8119,76.6791 13.5,78.5C 20.6325,72.3997 28.9658,69.5664 38.5,70C 39.8967,74.8172 41.23,79.6505 42.5,84.5 Z"/></g>
<g><path style="opacity:1" fill="#090909" d="M 42.5,84.5 C 42.8333,84.5 43.1667,84.5 43.5,84.5C 43.8333,86.5 44.1667,88.5 44.5,90.5C 42.4131,91.5846 41.0798,93.2512 40.5,95.5C 39.0937,95.9731 38.427,96.9731 38.5,98.5C 36.0941,103.394 34.0941,108.394 32.5,113.5C 31.5,113.5 30.5,113.5 29.5,113.5C 27.8333,111.167 25.8333,109.167 23.5,107.5C 23.2624,105.596 22.2624,104.262 20.5,103.5C 19.4161,100.996 18.0828,98.6626 16.5,96.5C 15.0687,95.2196 14.4021,93.5529 14.5,91.5C 14.5848,88.3511 13.5848,85.6845 11.5,83.5C 11.5,83.1667 11.5,82.8333 11.5,82.5C 11.7329,80.9382 12.3995,79.6049 13.5,78.5C 17.8119,76.6791 22.1453,74.8458 26.5,73C 30.4183,71.8436 34.4183,71.3436 38.5,71.5C 38.5884,76.3296 39.9217,80.6629 42.5,84.5 Z"/></g>
<g><path style="opacity:0.871" fill="#818181" d="M 44.5,77.5 C 46.2132,78.6354 46.8799,80.302 46.5,82.5C 45.0687,81.2196 44.4021,79.5529 44.5,77.5 Z"/></g>
<g><path style="opacity:0.071" fill="#c0c0c0" d="M 13.5,78.5 C 12.3995,79.6049 11.7329,80.9382 11.5,82.5C 10.0242,80.2911 10.6909,78.9577 13.5,78.5 Z"/></g>
<g><path style="opacity:1" fill="#050505" d="M 120.5,98.5 C 118.489,101.861 116.489,105.194 114.5,108.5C 114.5,109.167 114.167,109.5 113.5,109.5C 111.704,110.793 110.037,112.293 108.5,114C 107.207,114.49 105.873,114.657 104.5,114.5C 103.096,111.623 100.763,109.956 97.5,109.5C 96.0892,107.086 94.0892,105.419 91.5,104.5C 90.0402,101.871 88.3735,99.3714 86.5,97C 89.7245,93.2834 92.7245,89.4501 95.5,85.5C 95.3284,84.5084 95.6618,83.8417 96.5,83.5C 102.738,83.3417 109.071,83.175 115.5,83C 116.416,82.7216 117.082,82.2216 117.5,81.5C 117.833,81.5 118.167,81.5 118.5,81.5C 121.206,81.4249 123.873,81.0916 126.5,80.5C 125.485,86.8796 123.485,92.8796 120.5,98.5 Z"/></g>
<g><path style="opacity:0.804" fill="#515151" d="M 117.5,81.5 C 117.082,82.2216 116.416,82.7216 115.5,83C 109.071,83.175 102.738,83.3417 96.5,83.5C 96.4176,81.7483 97.2509,80.7483 99,80.5C 105.114,82.4095 111.28,82.7429 117.5,81.5 Z"/></g>
<g><path style="opacity:0.012" fill="#d4d4d4" d="M 46.5,82.5 C 47.9063,82.9731 48.573,83.9731 48.5,85.5C 47.0937,85.0269 46.427,84.0269 46.5,82.5 Z"/></g>
<g><path style="opacity:0.243" fill="#b0b0b0" d="M 92.5,57.5 C 93.793,58.842 94.6264,60.5087 95,62.5C 96.0347,69.3549 95.368,76.0216 93,82.5C 92.0513,84.0931 90.8846,85.4264 89.5,86.5C 90.3519,83.7766 91.5186,81.11 93,78.5C 94.8674,71.4638 94.7007,64.4638 92.5,57.5 Z"/></g>
<g><path style="opacity:0.082" fill="#d3d3d3" d="M 43.5,84.5 C 45.1852,85.1837 46.1852,86.517 46.5,88.5C 46.1445,89.5223 45.4778,90.189 44.5,90.5C 44.1667,88.5 43.8333,86.5 43.5,84.5 Z"/></g>
<g><path style="opacity:0.435" fill="#9a9a9a" d="M 121.5,98.5 C 121.167,98.5 120.833,98.5 120.5,98.5C 123.485,92.8796 125.485,86.8796 126.5,80.5C 123.873,81.0916 121.206,81.4249 118.5,81.5C 121.219,80.087 124.219,79.4203 127.5,79.5C 127.107,86.3466 125.107,92.6799 121.5,98.5 Z"/></g>
<g><path style="opacity:0.867" fill="#5b5b5c" d="M 11.5,83.5 C 13.5848,85.6845 14.5848,88.3511 14.5,91.5C 12.9802,89.1098 11.9802,86.4432 11.5,83.5 Z"/></g>
<g><path style="opacity:0.008" fill="#d8d8d8" d="M 50.5,87.5 C 51.8333,88.1667 52.8333,89.1667 53.5,90.5C 51.5,90.5 50.5,89.5 50.5,87.5 Z"/></g>
<g><path style="opacity:0.345" fill="#aaaaaa" d="M 53.5,90.5 C 55.0269,90.427 56.0269,91.0937 56.5,92.5C 54.9731,92.573 53.9731,91.9063 53.5,90.5 Z"/></g>
<g><path style="opacity:0.071" fill="#c3c3c3" d="M 44.5,90.5 C 43.9202,92.7488 42.5869,94.4154 40.5,95.5C 41.0798,93.2512 42.4131,91.5846 44.5,90.5 Z"/></g>
<g><path style="opacity:0.648" fill="#858585" d="M 56.5,92.5 C 63.3781,94.1586 70.3781,94.8253 77.5,94.5C 70.198,97.3799 63.198,96.7132 56.5,92.5 Z"/></g>
<g><path style="opacity:0.027" fill="#cdcdcd" d="M 40.5,95.5 C 40.573,97.0269 39.9063,98.0269 38.5,98.5C 38.427,96.9731 39.0937,95.9731 40.5,95.5 Z"/></g>
<g><path style="opacity:1" fill="#0e0e0e" d="M 57.5,97.5 C 63.2363,98.7992 68.903,99.7992 74.5,100.5C 74.2063,104.567 75.5397,107.9 78.5,110.5C 79.3382,110.842 79.6716,111.508 79.5,112.5C 79.427,114.027 80.0937,115.027 81.5,115.5C 83.8044,118.141 86.1377,120.808 88.5,123.5C 85.8333,125.167 83.1667,126.833 80.5,128.5C 79.8333,128.5 79.1667,128.5 78.5,128.5C 68.7216,128.45 59.055,127.45 49.5,125.5C 48.3222,120.979 48.3222,116.312 49.5,111.5C 50.8287,107.226 52.3287,102.893 54,98.5C 55.0113,97.6634 56.1779,97.33 57.5,97.5 Z"/></g>
<g><path style="opacity:0.039" fill="#d4d4d4" d="M 16.5,96.5 C 18.0828,98.6626 19.4161,100.996 20.5,103.5C 17.8881,101.948 16.5548,99.6145 16.5,96.5 Z"/></g>
<g><path style="opacity:0.004" fill="#cbcbcb" d="M 95.5,85.5 C 92.7245,89.4501 89.7245,93.2834 86.5,97C 88.3735,99.3714 90.0402,101.871 91.5,104.5C 90.4168,104.461 89.4168,104.127 88.5,103.5C 87.138,101.149 85.8047,98.8157 84.5,96.5C 87.8273,92.5061 91.4939,88.8394 95.5,85.5 Z"/></g>
<g><path style="opacity:0.035" fill="#e1e1e1" d="M 120.5,98.5 C 120.833,98.5 121.167,98.5 121.5,98.5C 120.149,102.542 117.815,105.875 114.5,108.5C 116.489,105.194 118.489,101.861 120.5,98.5 Z"/></g>
<g><path style="opacity:0.063" fill="#fefffe" d="M 84.5,103.5 C 84.8966,102.475 85.5632,102.308 86.5,103C 85.9056,103.464 85.2389,103.631 84.5,103.5 Z"/></g>
<g><path style="opacity:0.549" fill="#979797" d="M 74.5,100.5 C 76.3459,103.54 77.6792,106.873 78.5,110.5C 75.5397,107.9 74.2063,104.567 74.5,100.5 Z"/></g>
<g><path style="opacity:0.035" fill="#bcbcbc" d="M 20.5,103.5 C 22.2624,104.262 23.2624,105.596 23.5,107.5C 21.7376,106.738 20.7376,105.404 20.5,103.5 Z"/></g>
<g><path style="opacity:1" fill="#949494" d="M 91.5,104.5 C 94.0892,105.419 96.0892,107.086 97.5,109.5C 94.9108,108.581 92.9108,106.914 91.5,104.5 Z"/></g>
<g><path style="opacity:0.004" fill="#c5c5c5" d="M 23.5,107.5 C 25.8333,109.167 27.8333,111.167 29.5,113.5C 26.5,112.5 24.5,110.5 23.5,107.5 Z"/></g>
<g><path style="opacity:0.259" fill="#bcbcbc" d="M 57.5,97.5 C 56.1779,97.33 55.0113,97.6634 54,98.5C 52.3287,102.893 50.8287,107.226 49.5,111.5C 49.5339,106.562 50.7005,101.896 53,97.5C 54.6155,96.1991 56.1155,96.1991 57.5,97.5 Z"/></g>
<g><path style="opacity:1" fill="#8b8b8b" d="M 97.5,109.5 C 100.763,109.956 103.096,111.623 104.5,114.5C 101.63,113.567 99.2964,111.9 97.5,109.5 Z"/></g>
<g><path style="opacity:0.369" fill="#d7d7d7" d="M 113.5,109.5 C 112.004,114.396 109.004,116.063 104.5,114.5C 105.873,114.657 107.207,114.49 108.5,114C 110.037,112.293 111.704,110.793 113.5,109.5 Z"/></g>
<g><path style="opacity:0.004" fill="#d7d7d7" d="M 29.5,113.5 C 30.5,113.5 31.5,113.5 32.5,113.5C 31.7399,115.985 30.7399,115.985 29.5,113.5 Z"/></g>
<g><path style="opacity:0.796" fill="#9b9b9b" d="M 79.5,112.5 C 80.9063,112.973 81.573,113.973 81.5,115.5C 80.0937,115.027 79.427,114.027 79.5,112.5 Z"/></g>
<g><path style="opacity:0.69" fill="#a0a0a0" d="M 88.5,123.5 C 89.4778,123.811 90.1445,124.478 90.5,125.5C 87.2512,126.812 83.9179,127.812 80.5,128.5C 83.1667,126.833 85.8333,125.167 88.5,123.5 Z"/></g>
<g><path style="opacity:0.018" fill="#fefffe" d="M 100.5,126.5 C 100.897,125.475 101.563,125.308 102.5,126C 101.906,126.464 101.239,126.631 100.5,126.5 Z"/></g>
<g><path style="opacity:0.543" fill="#979797" d="M 49.5,125.5 C 59.055,127.45 68.7216,128.45 78.5,128.5C 72.6812,129.653 66.6812,129.819 60.5,129C 56.4711,128.584 52.8044,127.417 49.5,125.5 Z"/></g>
</svg>
